<?xml version="1.0" encoding="utf-8"?>
<!-- Generator: Adobe Illustrator 24.1.0, SVG Export Plug-In . SVG Version: 6.00 Build 0)  -->
<svg version="1.1" id="Layer_1" xmlns="http://www.w3.org/2000/svg" xmlns:xlink="http://www.w3.org/1999/xlink" x="0px" y="0px"
	 width="609px" height="164px" viewBox="0 0 398.4857788 107.3299866" style="enable-background:new 0 0 398.4857788 107.3299866;" xml:space="preserve">
<style type="text/css">
	.st0{fill:#EC292F;}
	.st1{fill:#009FC9;}
	.st2{fill:#FFFFFF;}
	.st3{fill:#004D9D;}
	.st4{fill:#FAFDFF;}
	.st5{display:none;}
	.st6{display:inline;fill:#FFFFFF;}
	.st7{fill:#004EA0;}
</style>
<polygon class="st0" points="175.2455139,4.2722931 183.5784912,101.2992935 205.3024902,94.6672897 214.5234985,2.1273041 "/>
<polygon class="st0" points="113.6550293,2.6749878 121.5559998,105.3229904 142.0980225,107.3299866 153.9470215,0 "/>
<polygon class="st1" points="80.4719238,9.6470947 119.5809021,8.743103 110.8899231,100.9980927 92.3218994,96.777092 "/>
<polygon class="st1" points="146.443512,6.1576843 158.6904907,101.9706879 176.8605042,99.3076859 180.4165039,7.4886932 "/>
<path class="st2" d="M202.0375366,74.1620865v-0.0019989c-0.2060242-2.0929947-1.9660034-3.6520004-4.0250244-3.6520004
	c-0.1369934,0.0009995-0.269989,0.0080032-0.3959961,0.0210037c-0.4519958,0.0439987-0.8789978,0.1620026-1.2689819,0.3379974
	l-0.8240051-8.4779968c0.0570068-0.1210022,0.0969849-0.2519989,0.1139832-0.3850021
	c0.0039978-0.0339966,0.0469971-0.3190002,0.0469971-0.6959991c-0.0049744-0.2509995-0.0049744-0.526001-0.1309814-0.9219971
	c-0.1190186-0.2980042-0.2319946-0.4480057-0.3049927-0.5250015c-0.0680237-0.1580048-0.132019-0.2310028-0.1940002-0.326004
	c-0.2799988-0.3730011-0.6560059-0.7109985-1.2220154-1.0519943c-0.5589905-0.3280029-1.2980042-0.6170044-2.1799927-0.6360016
	c-0.0509949,0.0099945-0.7600098-0.1060028-1.5220032-0.2330017c-0.2810059-0.0439987-0.5809937-0.090004-0.8940125-0.1279984
	c0.0130005-0.0180054,0.0250244-0.0360031,0.0390015-0.052002l3.7019958-5.0059967
	c0.3059998-0.2710037,0.480011-0.677002,0.4380188-1.1150055l-0.0450134-0.4449997l-0.651001-6.7289886
	c0.2189941-0.25,0.4070129-0.5110016,0.5700073-0.8280029c0.1279907-0.2600098,0.177002-0.5480042,0.1740112-0.7850037
	c-0.0190125-0.6670074-0.2539978-1.0010071-0.3600159-1.2420044c-0.0369873-0.072998-0.0679932-0.1329956-0.0899963-0.1779938
	c0.0180054-0.1759949,0.0570068-0.5350037,0.0620117-0.8820038c-0.0200195-0.2509918,0.0369873-0.4900055-0.2409973-1.0269928
	c-0.2690125-0.4700012-0.7220154-0.9300079-1.2660217-1.1410065c-0.5369873-0.2129974-0.9989929-0.2169952-1.4329834-0.2220001
	c-0.2770081,0-0.5570068,0.0090027-0.8739929,0.0149994c-0.3310242,0.0059967-0.7390137,0.0339966-1.184021,0.0720062
	l3.4840088-4.6860046c0.1459961-0.1470032,0.2569885-0.3269958,0.3190002-0.5269928
	c0.0910034-0.2540131,0.098999-0.5270081,0.0310059-0.7820129l-0.0180054-0.1909943l-0.776001-7.9750061
	c0.0979919-0.1869965,0.17099-0.4229889,0.17099-0.6909943c0-0.1130066-0.0139771-0.2050018-0.0269775-0.2819977
	l-0.006012-0.0279999v-0.0019989v-0.0619965c-0.0050049-0.1640015,0.04599-0.5100098,0.1300049-0.803009
	c0.0390015-0.147995,0.0879822-0.2859955,0.1300049-0.3860016c0.019989-0.0509949,0.039978-0.0910034,0.0529785-0.1159973
	c0.007019-0.0139923,0.0110168-0.0200043,0.0130005-0.026001c0.1880188-0.2579956,0.322998-0.621994,0.3180237-0.9799957
	c-0.0080261-0.6380005-0.3310242-1.0469971-0.5720215-1.2850037c-0.3840027-0.3659973-0.7579956-0.5399933-1.1239929-0.6920013
	c-0.3729858-0.1429901-0.7090149-0.2369995-1.1010132-0.2720032c-0.1279907-0.0109863-0.2559814-0.0149994-0.3919983-0.0149994
	c-0.8049927,0.0110016-1.8869934,0.098999-2.7659912,0.3680115c-0.0119934,0.0079956-0.2170105,0.0509949-0.5090027,0.0769958
	c-0.9049988,0.0930023-2.5559998,0.1269989-4.2519836,0.3710022c-0.2669983,0.0390015-0.585022,0.0569916-0.9260254,0.0569916
	c-0.8369751,0.0019989-1.7559814-0.1060028-2.5839844-0.1100006c-0.4639893,0.0169983-0.8930054-0.0059967-1.4890137,0.2770081
	c-0.0019836,0.0019989-0.0069885,0.0039978-0.0130005,0.0070038c-0.0839844,0.0219879-0.4799805,0.0709991-0.9329834,0.0609894
	c-0.4530029,0-0.9869995-0.0209961-1.519989-0.0209961c-0.309021,0-0.6230164,0.0070038-0.9360046,0.0359955
	c-0.4890137,0.0500031-1.6390076,0.0780029-2.7900085,0.1630096c-0.5840149,0.0439911-1.1759949,0.1009979-1.730011,0.1920013
	c-0.5369873,0.0899963-1.0269775,0.1929932-1.5109863,0.4079895c-0.0029907,0-0.0050049,0-0.0069885,0.0010071
	c-0.0110168,0.0049896-0.0310059,0.0130005-0.0550232,0.0240021c-0.0090027,0.0019989-0.019989,0.0069885-0.0350037,0.0130005
	c-0.0509949,0.0209961-0.1309814,0.048996-0.269989,0.1329956l0.0020142,0.0009918
	c-0.2210083,0.1360016-0.4040222,0.2970123-0.552002,0.4640045c-0.3359985-0.2319946-0.7000122-0.4069977-1.2390137-0.4729919
	c-0.0889893-0.0070038-0.1679993-0.0100098-0.25-0.0100098c-0.9299927,0.0169983-2.3079834,0.2510071-3.2030029,0.5240021
	c-0.0019836,0.0039978-0.2139893,0.0469971-0.5059814,0.0740051c-0.90802,0.0939941-2.5559998,0.1279907-4.2480164,0.3699951
	c-0.276001,0.0390015-0.5969849,0.0570068-0.9389954,0.0570068c-0.8370056,0.0019989-1.7539978-0.1060028-2.5799866-0.1080017
	c-0.4640198,0.0159912-0.8930054-0.0080109-1.4920044,0.2769928c-0.0020142,0.0019989-0.0039978,0.0019989-0.006012,0.0050049
	c-0.0820007,0.0200043-0.480011,0.0690002-0.9320068,0.0599976c-0.4549866,0.0010071-0.9889832-0.0209961-1.5220032-0.0209961
	c-0.3109741,0-0.6229858,0.0070038-0.9319763,0.0370026c-0.598999,0.0559998-1.8800049,0.1629944-3.1640015,0.302002
	c-1.303009,0.144989-2.5360107,0.2929993-3.3529968,0.5269928c-0.2610168,0.0820007-0.4460144,0.1849976-0.5299988,0.2330017
	c-0.0550232,0.022995-0.1350098,0.0619965-0.2280273,0.1170044l-0.026001,0.0169983
	c-0.0839844,0.0540009-0.1879883,0.1230011-0.3139954,0.2269897c-0.5009766,0.4520111-0.802002,0.9440002-1.1199951,1.477005
	c-0.4570007,0.7960052-0.8819885,1.6930084-1.2659912,2.3760071c-0.0509949,0.0929871-0.1040039,0.1799927-0.1520081,0.2639923
	c-0.3070068-1.2350006-1.2640076-2.4819946-2.9049988-3.1269989c-1.2860107-0.5039978-2.7730103-0.901001-4.0579834-0.9129944
	c-0.4380188,0.0039978-0.8680115,0.0339966-1.3590088,0.2529907v-0.0009918
	c-0.0020142,0.0009918-0.0069885,0.0029907-0.0180054,0.0069885c0,0.0010071-0.0019836,0.0010071-0.0039978,0.0020142
	c-0.1239929,0.0369873-0.7709961,0.1139984-1.3720093,0.1009979c-0.8479919,0.0019989-1.7939758-0.072998-2.052002-0.1080017
	c-0.2279968-0.029007-0.4619751-0.0390015-0.7229919-0.0390015c-0.4660034,0-1.0019836,0.0359955-1.5329895,0.1239929
	c-0.5390015,0.1080017-1.0339966,0.1809998-1.632019,0.6139984c-0.1640015,0.1350098-0.6729736,0.4690094-1.1699829,0.7690125
	c-0.5020142,0.3049927-1.0310059,0.6080017-1.3070068,0.7549896c-0.8330078,0.4520111-1.2519836,0.8040009-2.3389893,1.2080078
	c-1.1220093,0.4140015-1.9530029,1.1529999-2.4980164,1.9440002c-0.3139954,0.2709961-0.4719849,0.5540009-0.6319885,0.8139954
	c-0.2870178,0.5070038-0.5020142,1.0279999-0.7279968,1.4629974c-0.2120056,0.4349976-0.4570007,0.7470093-0.5190125,0.7770081
	c-0.2070007,0.1569977-0.4049988,0.3209991-0.5920105,0.4919891c0.0750122-0.3309937,0.1080017-0.6589966,0.1080017-0.9729919
	c-0.0019836-0.9550018-0.289978-1.7819977-0.6380005-2.4450073c-0.3589783-0.6679993-0.7539978-1.1619873-1.1809998-1.5269928
	c-0.6029968-0.4580078-1.1039734-0.4470062-1.4759827-0.4640045c-0.2839966,0.0010071-0.5299988,0.029007-0.7310181,0.0540009
	c-0.1049805-0.0469971-0.2159729-0.0800018-0.3320007-0.0979919c-0.0389709,0-1.3399963-0.2120056-2.1289978-0.2200012
	c-0.1029968,0.0019989-0.1949768-0.0010071-0.3589783,0.0249939c-0.0209961,0.0010071-0.053009,0.0010071-0.0939941,0.0010071
	c-0.0680237,0-0.1630249-0.0010071-0.276001-0.0010071c-0.3700256,0.0010071-0.8950195,0.0050049-1.4820251,0.1410065
	c-0.5509949,0.1269989-1.2319946,0.3899994-1.7509766,1.0209961c-0.0020142,0.0010071-0.0039978,0.0019989-0.007019,0.0019989
	c-0.1139832,0.0509949-0.4509888,0.1119995-0.8110046,0.1399994c-0.1829834,0.0180054-0.3729858,0.0330048-0.5699768,0.0550079
	c-0.20401,0.0279999-0.401001,0.0449982-0.7030029,0.1529999c-0.6710205,0.2519989-1.197998,0.6549988-1.57901,1.071991
	c-0.0939941,0.0740051-0.197998,0.173996-0.2869873,0.2940063c-0.0559998,0.0739899-0.0920105,0.1289978-0.125,0.1799927
	c-0.007019,0.0120087-0.0190125,0.029007-0.0350037,0.0510101c-0.382019,0.6019897-0.8800049,1.5789948-1.3760071,2.473999
	c-0.2430115,0.4409943-0.4779968,0.8519897-0.6579895,1.1269989c-0.0469971,0.071991-0.0890198,0.1340027-0.1230164,0.1809998
	c-1.6000061,0.6949921-2.4299927,2.2529907-2.3899841,3.6459961c0.0119934,1.2769928,0.5299988,2.5050049,1.4839783,3.3650055
	l4.4779968,46.1019897c0.0350037,0.3510056,0.2020264,0.6669998,0.4740295,0.8899994
	c0.2379761,0.1940002,0.5289917,0.3010025,0.8339844,0.3010025c0.0429993,0,0.0859985-0.0039978,0.1300049-0.0080032
	l10.4320068-1.0259933c0.368988-0.0350037,0.7070007-0.2280045,0.9279785-0.5250015l3.0780029-4.1529999
	c0.4970093,0.6019974,1.0419922,1.1459961,1.6400146,1.625c2.117981,1.6920013,4.8289795,2.5139999,7.9029846,2.5089951
	c0.6100159-0.0009995,1.2369995-0.0319977,1.8780212-0.0949936c4.5569763-0.4350052,8.2379761-2.064003,10.6789856-4.9350052
	c1.0249939-1.2179947,2.5140076-2.7949982,3.8299866-4.6809998l0.5240173,5.387001l0.0440063,0.4580002
	c0.0350037,0.348999,0.2009888,0.6640015,0.4749756,0.8880005c0.2720032,0.2229996,0.6140137,0.3280029,0.9630127,0.2929993
	l0.4729919-0.0449982l22.3220215-2.1669998l0.4749756-0.0490036c0.3610229-0.0369949,0.6849976-0.2149963,0.90802-0.5
	c0.2299805,0.1350021,0.5039978,0.2000046,0.7890015,0.1740036l0.4599915-0.0449982l22.3250122-2.1690063l0.4589844-0.0439987
	c0.368988-0.0339966,0.7099915-0.2269974,0.9330139-0.5239944l1.7849731-2.4060059
	c0.4750061,1.7570038,2.0740051,2.9990005,3.9100037,2.9970016c0.1300049,0,0.2630005-0.0069962,0.4000244-0.0199966
	c2.0869751-0.2030029,3.6599731-1.9599991,3.6559753-4.0330048
	C202.0555115,74.4300919,202.0505066,74.2960892,202.0375366,74.1620865"/>
<path class="st3" d="M197.9223938,74.391098c0.4240112-0.0400009,1.0910034-0.0419998,1.0320129-0.6610031
	c-0.0469971-0.4580002-0.4620056-0.4749985-0.8380127-0.4389954l-0.8639832,0.0849991l0.1059875,1.0699997L197.9223938,74.391098z
	 M199.5123901,75.9510956l-0.4530029,0.0449982l-0.9979858-1.3239975l-0.6759949,0.0660019l0.1369934,1.4069977
	l-0.3890076,0.0370026l-0.2980042-3.0599976l1.3430176-0.1320038c0.25-0.0240021,0.5079956-0.048996,0.7529907,0.0960007
	c0.2340088,0.1039963,0.3959961,0.3679962,0.4129944,0.6200027c0.0580139,0.6049957-0.3509827,0.8689957-0.8809814,0.9289932
	L199.5123901,75.9510956z M195.6843872,74.7850952c0.125,1.2939987,1.2640076,2.2229996,2.5490112,2.0970001
	c1.2879944-0.1240005,2.2090149-1.2529984,2.0830078-2.5459976c-0.1230164-1.2819977-1.2480164-2.2180023-2.5339966-2.0940018
	C196.497406,72.3680954,195.5584106,73.5050964,195.6843872,74.7850952 M200.727417,74.2880936
	c0.1479797,1.5220032-0.9520264,2.852005-2.45401,2.9970016c-1.5110168,0.1480026-2.8520203-0.9449997-3-2.4679947
	c-0.1459961-1.5020065,0.9609985-2.8310013,2.4700012-2.9780045
	C199.247406,71.6921005,200.5813904,72.7860947,200.727417,74.2880936"/>
<path class="st3" d="M189.0057373,19.445694c-0.5650024-0.0439911-1.9460144,0.0670013-2.6590271,0.2950134
	c-0.7159729,0.2339935-2.84198,0.1889954-4.9729919,0.4980011c-1.7160034,0.246994-3.92099-0.2720032-4.6080017,0.1019897
	c-0.6919861,0.3700104-2.6380005,0.098999-3.8569946,0.2129974c-1.17099,0.1090088-4.4609985,0.1060028-5.6600037,0.6700134
	c-0.0090027,0.0029907-0.0180054,0.0069885-0.0289917,0.0109863c-0.0400085,0.0200043-0.0970154,0.0330048-0.1329956,0.0570068
	c-0.1369934,0.0820007-0.256012,0.1959991-0.355011,0.3289948c-0.29599,0.2980042-0.6099854,0.7190094-0.9259949,1.1920013
	c0.1000061-0.5670013-0.8110046-1.2919922-1.3170166-1.3329926c-0.5629883-0.0440063-2.2279968,0.2249908-2.9419861,0.4539948
	c-0.7160034,0.2310028-2.8429871,0.1889954-4.9729919,0.4949951c-1.7160034,0.25-3.9169922-0.2679901-4.6080017,0.102005
	c-0.6920166,0.3699951-2.6390076,0.098999-3.8540039,0.2129974c-1.2269897,0.1150055-5.0769958,0.4260101-6.269989,0.7810059
	c-0.1370239,0.0429993-0.2270203,0.1040039-0.3330078,0.1609955c-0.0379944,0.0149994-0.0760193,0.029007-0.1130066,0.052002
	c-0.0639954,0.0399933-0.1220093,0.0800018-0.1730042,0.1239929c-1.0950012,0.9589996-2.2619934,4.6290131-3.3089905,4.9390106
	c-0.6470032,0.1940002-0.9079895,0.5589905-0.9760132,0.9779968c-0.2669983-0.2969971-0.5629883-0.5590057-0.8549805-0.8220062
	c0.1640015-0.0749969,0.302002-0.1689911,0.3800049-0.302002c0.4399719-0.9129944,0.0549927-2.7529907-2.0240173-3.5839996
	c-1.5400085-0.6159973-3.5960083-1.0569916-4.3890076-0.6839905c-0.802002,0.3739929-3.5059814,0.1920013-4.1529846,0.1069946
	c-0.6480103-0.0849915-2.3680115,0.0090027-2.9079895,0.4300079c-0.5320129,0.42099-2.0410156,1.3139954-2.6700134,1.6490021
	c-0.6910095,0.3679962-1.269989,0.8249969-2.5020142,1.2799988c-0.9079895,0.3329926-1.572998,0.9659882-1.9719849,1.6109924
	c-0.6740112,0.4029999-1.1140137,2.4799957-2.0679932,3.2019958c-1.9040222,1.4320068-2.9689941,3.9380035-1.7010193,4.1240082
	c0.053009,0.022995,0.105011,0.0410004,0.1610107,0.052002c-0.4809875,0.7819977-0.868988,1.6569977-1.1820068,2.6129913
	l-0.6219788-6.4019928c0.0939941-0.0720062,0.1899719-0.1419983,0.2589722-0.2460022
	c1.2350159-1.9290009-0.1549988-4.0500031-0.8529968-4.6309967c-0.5350037-0.4380035-2.1549988,0.2149963-1.8929749-0.2170105
	c0,0-1.7520142-0.2630005-2.1090088-0.1949921c-0.3540039,0.0690002-2.0960083-0.1970062-2.7990112,0.7319946
	c-0.5220032,0.6820068-2.1170044,0.5220032-2.6139832,0.7100067c-0.5140076,0.1949921-0.8740234,0.4909973-1.15802,0.8249969
	c-0.0419922,0.0220032-0.0829773,0.0500031-0.117981,0.0970001c-0.0270081,0.0339966-0.0559998,0.0789948-0.0859985,0.125
	c-0.0110168,0.0140076-0.0200195,0.0269928-0.0290222,0.0410004c-0.6089783,0.9539948-2.0709839,4.0140076-2.5379944,4.1880035
	c-2.5639954,0.9749908-2.0929871,4.1089935-0.368988,5.1909943l4.5319824,46.6659927l10.4320068-1.0239944l3.8909912-5.2519989
	l-0.0019836-0.0190048l0.0180054-0.0019989l-0.0890198-0.9260025c0.7650146,1.3970032,1.6830139,2.5500031,2.7790222,3.4250031
	c2.2200012,1.7689972,5.1919861,2.487999,8.8329773,2.1339951c4.3300171-0.4199982,7.6300049-1.9279938,9.8009949-4.4779968
	c1.7240295-2.0249939,4.4830017-4.8839951,5.7330017-8.2039948l0.9350281,9.6339951l0.0439758,0.4570007l0.4730225-0.0459976
	l22.321991-2.1669998l0.4750061-0.0470047l1.5309753-2.0569992l0.1240234,1.2840042l0.0439758,0.4449997l0.4620056-0.0439987
	l22.3210144-2.1689987l0.4609985-0.0430069l3.867981-5.2069931l0.0250244-0.0010071l-0.0440063-0.4469986l-0.92099-9.4860001
	l0.1609802-0.2739944c0,0,0.0920105-0.6640015-0.0270081-1.0170059c-0.0329895-0.1019974-0.1829834-0.1650009-0.2449951-0.375
	c-0.065979-0.2269974-1.0650024-1.2439957-2.4369812-1.2709961c-0.7880249-0.0130005-3.8200073-0.8190002-5.5180054-0.3339996
	c-1.1669922,0.3310013-2.5230103,0.4990005-2.5230103,0.4990005c-1.6919861,0.1309967-2.3039856,0.9669952-2.519989,1.4399948
	l-0.3300171-3.3880005l7.0210266-0.6829987l0.4619751-0.0429993l3.8500061-5.2080002l0.0379944-0.0039978l-0.0419922-0.4459915
	l-0.7120056-7.3350067c0.3269958-0.298996,0.6410217-0.6860046,0.7520142-0.9169922
	c0.2160034-0.447998-0.3789978-1.0410004-0.4120178-1.4720001c-0.0189819-0.2850037,0.1570129-1.1560059,0.0100098-1.4049988
	c-0.4890137-0.8160095-1.0480042-0.7220001-2.4169922-0.7020111c-1.0410156,0.0160065-3.7520142,0.3730011-4.4960022,0.2730103
	c-0.7579956-0.1010132-2.7879944,0.1319885-3.1060181,0.0319977c-0.6559753-0.2030029-2.1099854,0.1869965-2.6529846,0.345993
	l-0.1499939-1.5339966l7.3939819-0.7180023l0.4640198-0.0449982l3.8719788-5.2059937l0.0160217-0.0010071v-0.0209961
	l0.0149841-0.022995l-0.019989-0.0150146l-0.0370178-0.3889923l-0.8289795-8.5240021
	c0.1439819-0.0890045,0.2389832-0.1880035,0.2139893-0.3079987c-0.1340027-0.6360016,0.20401-1.9559937,0.5410156-2.427002
	C190.9167175,20.0276947,189.5677185,19.4897003,189.0057373,19.445694"/>
<path class="st2" d="M189.5761108,64.5413895l1.0849915-0.6079941c0,0,0.9629822-0.3430023,1.6940002-0.7870026
	c0.7269897-0.4489975,0.3249817-0.8330002,0.3249817-0.8330002l0.0400085-0.1399994c0,0,0.5690002-0.3290024,0.6069946-0.5709991
	c0.0360107-0.2480011-0.1479797-0.2519989-0.2120056-0.5960007c-0.0599976-0.3420029-0.3829956-0.4980011-0.3829956-0.4980011
	c-1.4729919-0.8549957-3.4119873-1.2689972-5.8509827-0.8059998c0,0-3.8619995,0.6040039-4.1929932,0.8199997
	c-0.3270264,0.2210007-0.7970276,0.7160034-0.7970276,0.7160034c0.03302,0.3600006-0.1989746,1.3239975,0.2650146,1.8479996
	c0.1650085,0.1869965,0.2470093,0.375,0.5140076,0.6159973l1.1669922,2.5930023
	c0.743988-2.0210037,1.4979858-2.2630005,1.4979858-2.2630005s1.072998-0.2470016,1.598999,0.1080017
	c1.0429993,0.7059937,1.3320007,2.7059937,1.4620056,2.3880005
	C188.7960815,65.5793915,189.5761108,64.5413895,189.5761108,64.5413895"/>
<path class="st2" d="M188.1446228,20.7963867c-0.1420288,0.0040131-0.2850037,0.0020142-0.4330139,0.0020142
	c-0.6159973-0.0020142-1.3590088-0.0070038-2.0660095,0.3539886c-0.9759827,0.0010071-2.0029907-0.0999908-3.0109863,0.0270081
	c-1.5970154,0.1989899-2.8430176,0.2779999-4.3580017,0.326004l-0.1900024-0.0450134l-0.2049866,0.0270081
	c-1.6890259,0.2409973-4.1610107,0.5319977-6.1490173,0.2749939l-0.1149902-0.0159912l-0.1210022,0.0090027
	c-0.3580017,0.0349884-0.7440186,0.0319977-1.151001,0.0279999c-0.894989,0.0029907-1.6040039,0.1429901-2.5490112,0.5149994
	c0,0-0.4490051,0.2919922-0.4839783,0.5759888c-0.0310059,0.2830048,0.242981,0.9600067,0.242981,0.9600067
	c0.428009,0.3930054,0.1700134,0.1119995,1.0960083,0.7630005c0.4100037,0.2939911,0.947998,1.3730011,0.9790039,1.5480042
	l0.2949829,0.1949921l0.4790039,0.0440063l0.3829956,0.4119873c0,0,0.07901,0.0920105,0.1040039,0.0990143
	c0,0,1.0710144,1.2399902,1.2460022,3.0569916c0.1759949,1.8180084-0.1390076-0.7449951,0.5119934-1.6669922
	c0.1350098-0.1920013,0.3070068-1.3920135,0.4860229-1.7340088l0.0489807-0.0950012l-0.0069885-0.0650024
	c0.6430054-1.3309937,1.8760071-1.2079926,1.8760071-1.2079926l0.0149841-0.0019989
	c0.4840088,0.0740051,1.052002,0.423996,1.5240173,1.1289978c0.1549988,0.2310028,0.3119812,0.4669952,0.5219727,0.6829987
	l0.5190125,0.5279999l0.3200073,0.4730072c0.4769897-0.8680115,1.7059937-0.9860077,1.7059937-0.9860077
	c0.3049927-0.2910004,0.7690125-1.2229919,0.9649963-1.5209961c0.2520142-0.3860016,0.7200012-0.5830078,1.1600037-0.8690033
	c0.6849976-0.3909912,1.2850037-0.371994,1.6990051-0.1970062c0.2709961,0.1170044,0.8320007,0.480011,1.1109924,0.5720062
	l1.3070068,0.8390045l0.3850098,0.4039917c-0.1170044-1.1909943,0.0219727-1.6900024,0.2319946-1.8559875
	c0.4799805-0.3770142,1.1529846-0.2510071,1.0429993-0.9740143c0.0310059-0.0899963,0.118988-0.1409912,0.5359802-0.2759857
	c0.5-0.1680145,1.0540161-0.8930054,1.1000061-1.6150055l-0.3070068-0.7409973L188.1446228,20.7963867z"/>
<path class="st2" d="M156.6489258,29.2905884c0.8259888-2.8249969,2.8479919,0.8690033,2.8479919,0.8690033
	c1.427002-0.9659882,1.6260071-2.4550018,1.6260071-2.4550018l0.34198-0.5009918
	c0.1210022-0.1529999,0.3179932-0.3099976,0.5299988-0.4759979c0.4790039-0.3800049,0.8900146-0.2519989,0.7799988-0.9790039
	c0.0310059-0.0910034,0.1220093-0.1390076,0.5390015-0.2799988c0.4949951-0.1670074,1.0509949-0.8919983,1.1000061-1.6260071
	l-0.3089905-0.7480011l-0.7490234,0.0200043c-0.1439819,0.0050049-0.2829895,0.003006-0.4329834,0
	c-0.6140137,0.0019989-1.3609924-0.0029907-2.0589905,0.3619995c-0.9830017-0.0029907-2.0080261-0.1069946-3.0150146,0.0209961
	c-1.6000061,0.2020111-2.8410034,0.2770081-4.3630066,0.3230133l-0.1900024-0.0450134l-0.2009888,0.030014
	c-1.6900024,0.2399902-4.1619873,0.5319977-6.1480103,0.2689972l-0.1149902-0.0160065l-0.1210022,0.0110016
	c-0.3599854,0.0330048-0.7510071,0.0310059-1.1579895,0.0279999c-0.8900146-0.0019989-1.6010132,0.1390076-2.5429993,0.5130005
	l-0.4810181,0.5850067l0.2380066,0.9659882c0.4339905,0.3960114,0.1950073,0.5590057,1.1230164,1.2170105
	c0.414978,0.2939911,0.940979,0.8959961,0.96698,1.072998l0.1549988,0.322998l0.0750122,1c0,0,0.625,0.9499969,0.6480103,0.9559937
	l1.4179993,1.779007c0.2779846,0.1100006-0.1970215-1.3280029,0.5099792-1.8390045
	c0.1970215-0.1399994,0.7969971-0.2590027,0.973999-0.5999908l0.2610168-0.2210083l-0.0180054-0.1900024
	c0.2319946-0.2529907,0.4219971-0.6089935,0.5409851-0.7529907c0.4690247-0.5500031,1.0670166-0.5850067,1.0670166-0.5850067
	c0.6650085-0.0379944,1.177002-0.5289917,2.6619873-0.223999C153.9559021,28.5925903,156.2339172,30.7075958,156.6489258,29.2905884
	"/>
<path class="st2" d="M189.4413147,39.9472961c-0.7980042,0.0490112-1.8560181,0.1980133-1.8560181,0.1980133
	c-0.9519958,0.2599945-1.2659912,0.3170013-2.3429871,0.223999c-1.5840149-0.1390076-3.2790222-0.2409973-4.7900085,0.2319946
	l-0.5230103,0.746994l-0.0469971,0.0880127c-0.1900024,0.4039917-0.3450012,0.8399963-0.072998,1.0789948
	c0.053009,0.048996,0.1019897,0.0890045,0.1390076,0.128006l0.1749878,0.1639862l0.8829956-0.0849915
	c0.3850098,0.0169983,0.5220032,0.1799927,0.756012,0.6909943c0.1390076,0.3120117,0.2999878,0.6650085,0.7099915,0.9260101
	l0.6640015,1.0939941c0,0,1.6060181-2.1040039,3.3250122-0.878006c0.6319885,0.4480133,0.9700012,1.602005,0.9700012,1.602005
	l0.7789917-2.3430023c1.1849976-1.4519958,1.1849976-0.423996,2.3869934-1.0130005
	c1.2539978-0.6169891-0.1640015-1.1549988,0.2050171-1.7160034
	C191.3723145,40.2082977,190.2362976,39.9013062,189.4413147,39.9472961"/>
<path class="st2" d="M129.0776367,25.8763885c-2.5540161-0.2569885-5.0570068-0.5559998-7.1220093,0.806015
	c-0.9620056,0.6379852-2.697998,1.5559998-3.4290161,1.7309875c-1.7999878,0.4370117-3.2669983,2.602005-1.1159973,1.9260101
	c1.105011-0.3440094,1.9290161-0.6320038,1.9290161-0.6320038c0.5329895,0.1419983,0.8739929,0.4309998,1.2519836,1.2330017
	c0.0400085,0.3089905,0.3640137,1.5609894,0.6300049,1.5859985c0.1239929,0.0139923,0.2109985-0.6629944,0.7870178-0.6240082
	c-0.0420227-0.223999,0.3289795-1.2350006,0.4609985-1.4290009c0.492981-0.8289948,0.4049988-0.321991,1.1029968-0.8309937
	c0.7949829,0.0480042,1.2550049,1.5690002,1.6719971,2.1710052c0.0709839,0.098999,0.25,0.0329895,0.2359924-0.2519989
	c-0.0570068-1.098999,1.0280151-1.5770111,1.3659973-1.7580109c0.8259888-0.4429932,2.0939941-0.2929993,2.5979919,0.9600067
	c0.3110046,0.772995,1.4640198,1.4960022,1.8070068,1.7369995c0.1900024,0.1340027,0.7969971,1.6000061,0.7130127,1.8379974
	c-0.2449951,0.7369995,0.3139954-0.4889984,0.3139954-0.4889984s1.1329956-0.9669952,0.2049866-3.6730042
	c-0.2779846-0.8009949,0.7850037-2.1629944,2.3600159-1.8860016c0.7529907,0.1330109-0.1369934-2.3789978-1.2019958-2.1579895
	C133.0186157,26.2613983,130.3746338,25.569397,129.0776367,25.8763885"/>
<path class="st2" d="M142.0826111,56.5278931c-0.0570068-0.0309982-0.1390076-0.0769958-0.1570129-0.0949936l-0.1260071-0.1480026
	l-0.2779846-0.0400009c-0.3070068-0.0459976-0.6100159-0.1200027-0.928009-0.2019958
	c-0.95401-0.2400055-2.1759949-0.9280014-3.6319885-0.2630005l-0.8390198,0.5879974c0,0-0.0619812,0.0540009-0.6499939,0.1330032
	c-0.8850098,0.1229935-2.4230042,0.1619949-2.9670105,0.6279984c-0.3239746,0.2829971-0.4169922,0.6339951-0.2639771,1.0400009
	l0.0969849,0.2579956l0.9940186,0.1259995c1.17099,0.0650024,2.4609985,0.5170059,3.0389709,0.9189987
	c0.3430176,0.2830048,0.6650085,0.5540009,0.7520142,0.8740005c0.0700073,0.2970047,0.276001,0.7740021,0.5849915,1.1160049
	l0.4590149,0.8089981l0.3670044-0.8880005c0.0109863-0.0999985-0.0110168-0.5339966-0.0020142-0.6389999
	c0.0440063-0.4499969,0.3000183-0.901001,0.6409912-1.2669983c1.0140076-0.2750015,1.3980103-0.7490005,1.6880188-1.1030045
	c0.3200073-0.3959961,0.5029907-0.5909958,1.1589966-0.7049942l0.4620056-0.0810013l0.0969849-0.2710037
	C142.7366028,56.8918991,142.3146057,56.6539001,142.0826111,56.5278931"/>
<path class="st2" d="M128.5231323,66.7374878c0.2829895,0.1310043,0.9829712,0.5470047,1.3829956,0.3420029
	c0.644989-0.3290024,1.1399841-0.1110001,1.3029785,0.1930008c0.4750061,0.8700027,0.8130188-0.6640015,0.6060181,1.3700027
	c-0.0580139,0.5799942-0.1799927,0.9199982-0.5,1.1100006c-0.3200073,0.1919937-0.2960205,0.4529953-0.3399963,0.6699982
	c-0.0460205,0.2149963,0.1259766,1.4199982,0.1569824,1.6279984c0.1990051,1.3560028-0.1900024,0.3649979-0.4549866-0.0080032
	c-0.25-0.3669968-0.6809998-0.7259979-0.8900146-0.621994c-1.1359863,0.5509949-0.8509827-0.4280014-0.9519958-0.7890015
	c-0.1019897-0.3600006-0.2900085-0.8779984-0.368988-1.0240021c-0.085022-0.1529999-0.5310059-0.5329971-0.3099976-1.086998
	c0.21698-0.5490036-0.0420227-1.1080017-0.0570068-1.2659988C128.0831299,67.0984879,128.1811218,66.6654892,128.5231323,66.7374878
	"/>
<path class="st2" d="M109.4667358,30.961792c-0.1890259,1.7520142-0.9350281,2.201004-2.1980286,3.6240082
	c-0.368988,0.4589996-0.5679932,1.0559998-0.571991,1.6959991c-0.0050049,0.701004-0.1059875,1.2369995-0.5480042,2.2019958
	l-0.0879822,0.3670044l-0.3990173,1.7160034l-0.5489807-1.6730042c-0.1690063-0.5160065-0.5840149-1.0269928-1.0220032-1.5699921
	c-0.6800232-0.8390045-1.4470215-1.7860107-1.5550232-3.0650024c-0.2299805-0.2630005-0.5889893-0.3850098-1.0109863-0.5189972
	c-0.6820068-0.2190094-1.6159973-0.5170135-1.8009949-1.7280121l-0.0010071-0.0110016L99.7207336,31.9888
	c-0.0660095-0.5610046,0.0349731-0.9759979,0.302002-1.279007c0.4049988-0.4529877,1.0249939-0.4599915,1.6289978-0.4689941
	c0.4129944-0.0050049,0.8409729-0.0099945,1.1149902-0.1669922l0.0870056-0.052002l0.1080017-0.0120087
	c0.1309814-0.0149994,0.289978-0.1589966,0.4629822-0.3059998c0.3380127-0.2929993,0.8910217-0.7709961,1.6490173-0.3710022
	c0.2919922,0.026001,0.6629944-0.0110016,1.0579834-0.052002c0.9970093-0.1049957,1.95401-0.3479919,2.7770081,0.3830109
	l0.381012,0.4579926L109.4667358,30.961792z"/>
<path class="st2" d="M164.292511,42.2017975l-1.0120239,0.1480103c-0.9979858,0.2839966-1.6369934,0.3950043-2.7369995,0.1459961
	c-1.4909973-0.3450012-3.0419922-0.3179932-4.9239807,0.4409943c-0.2920227,0.1190033-0.7709961,0.8430023-0.7709961,0.8430023
	c-0.9630127,1.2259979,0.3839722,1.2850037,0.5259705,1.6410065c0.1440125,0.3699951,0.9760132,0.173996,0.9760132,0.173996
	c0.4070129,0.022995,0.54599,0.2070007,0.79599,0.7689972c0.1520081,0.3460083,0.1870117,0.4230042,0.6090088,0.7180023
	c0,0,0.6870117,0.8370056,0.802002,1.2440033c0.0660095,0.2319946,0.3869934-1.0670013,0.3869934-1.0670013l0.0930176-0.4490051
	c0.1170044-0.1989899,0.4259949-0.4869995,0.7290039-0.5c0.2909851,0.0070038,0.7769775-0.0130005,0.9299927,0.4500122
	c0.2179871,0.6769867,1.6059875,2.375,1.7290039,2.5609894c0.1369934,0.1930084,1.2929993-1.246994,1.2929993-1.246994
	l-0.0110168-1.3269958c0.2820129-0.6850128,0.7369995-1.2400055,1.9060059-1.2050018
	c1.0710144,0.0379944-0.5899963-1.3379974,0.5390015-2.2860107c0,0-0.07901-0.8320007-0.7600098-1.0299988
	C164.9974976,42.1108093,164.292511,42.2017975,164.292511,42.2017975"/>
<path class="st2" d="M164.8448181,68.8358917c0.1259766-0.4219971,0.5629883-1.0749969,0.5629883-1.0749969l0.3890076-0.4109955
	l2.2579956-2.2560043l0.4549866-0.9079971l-0.04599-0.4710007c0,0-0.1090088-0.1949997-0.4420166-0.5220032
	c-0.3399963-0.3239975-1.5979919-0.5749969-1.5979919-0.5749969c-4.0509949-1.4530029-2.4029846,0.5929947-7.25,0.4160004
	l-1.79599,0.4089966l-0.2600098,0.6080017c0.03302,0.3440018,0.2140198,0.7679977,0.6340027,1.2720032
	c0.1499939,0.1769943,0.1719971,1.1349945,1.0220032,1.1089935c1.0169983-0.0319977,1.5559998,0.276001,2.0809937,0.8050003
	c0.5169983,0.5160065,1.8520203,0.0230026,2.2980042,0.3810043c0.6230164,0.4980011,1.131012,1.8610001,1.2130127,2.387001
	C164.3658142,70.0048981,164.1578064,71.1128922,164.8448181,68.8358917"/>
<path class="st4" d="M113.9655151,79.22789l-8.5240173,0.8270035l-4.3989868-45.3069992
	c0.0379944,0.0090027,0.0769958,0.0200043,0.1170044,0.029007l0.7289734,0.6049957l0.6560059,1.5569916
	c1.2440186,0.9830017,0.9020081,1.8690033,1.5899963,2.1140137l0.5500183,0.7719879l0.0839844,0.4170074
	c0.4909973,0.423996,0.3560181,1.3150024,0.5660095,1.8069916c0.0799866,0.1980133,0.5379944,1.0200043,0.6159973,1.1690063
	c0.1579895-1.2339935,0.4100037-2.4450073,0.9419861-3.9819946c0.1930237-0.9320068,0.3730164-2.0970001,0.5450134-2.8630066
	c0,0,1.269989-1.9929962,1.6749878-2.5c0.1130066-0.1430054,0.2580261-0.2429962,0.4160156-0.3289948L113.9655151,79.22789z"/>
<path class="st2" d="M129.0776367,25.8763885c-2.5540161-0.2569885-5.0570068-0.5559998-7.1220093,0.806015
	c-0.9620056,0.6379852-2.697998,1.5559998-3.4290161,1.7309875c-1.7999878,0.4370117-3.2669983,2.602005-1.1159973,1.9260101
	c1.105011-0.3440094,1.9290161-0.6320038,1.9290161-0.6320038c0.5329895,0.1419983,0.8739929,0.4309998,1.2519836,1.2330017
	c0.0400085,0.3089905,0.3640137,1.5609894,0.6300049,1.5859985c0.1239929,0.0139923,0.2109985-0.6629944,0.7870178-0.6240082
	c-0.0420227-0.223999,0.3289795-1.2350006,0.4609985-1.4290009c0.492981-0.8289948,0.4049988-0.321991,1.1029968-0.8309937
	c0.7949829,0.0480042,1.2550049,1.5690002,1.6719971,2.1710052c0.0709839,0.098999,0.25,0.0329895,0.2359924-0.2519989
	c-0.0570068-1.098999,1.0280151-1.5770111,1.3659973-1.7580109c0.8259888-0.4429932,2.0939941-0.2929993,2.5979919,0.9600067
	c0.3110046,0.772995,1.4640198,1.4960022,1.8070068,1.7369995c0.1900024,0.1340027,0.7969971,1.6000061,0.7130127,1.8379974
	c-0.2449951,0.7369995,0.3139954-0.4889984,0.3139954-0.4889984s1.1329956-0.9669952,0.2049866-3.6730042
	c-0.2779846-0.8009949,0.7850037-2.1629944,2.3600159-1.8860016c0.7529907,0.1330109-0.1369934-2.3789978-1.2019958-2.1579895
	C133.0186157,26.2613983,130.3746338,25.569397,129.0776367,25.8763885"/>
<path class="st2" d="M142.0826111,56.5278931c-0.0570068-0.0309982-0.1390076-0.0769958-0.1570129-0.0949936l-0.1260071-0.1480026
	l-0.2779846-0.0400009c-0.3070068-0.0459976-0.6100159-0.1200027-0.928009-0.2019958
	c-0.95401-0.2400055-2.1759949-0.9280014-3.6319885-0.2630005l-0.8390198,0.5879974c0,0-0.0619812,0.0540009-0.6499939,0.1330032
	c-0.8850098,0.1229935-2.4230042,0.1619949-2.9670105,0.6279984c-0.3239746,0.2829971-0.4169922,0.6339951-0.2639771,1.0400009
	l0.0969849,0.2579956l0.9940186,0.1259995c1.17099,0.0650024,2.4609985,0.5170059,3.0389709,0.9189987
	c0.3430176,0.2830048,0.6650085,0.5540009,0.7520142,0.8740005c0.0700073,0.2970047,0.276001,0.7740021,0.5849915,1.1160049
	l0.4590149,0.8089981l0.3670044-0.8880005c0.0109863-0.0999985-0.0110168-0.5339966-0.0020142-0.6389999
	c0.0440063-0.4499969,0.3000183-0.901001,0.6409912-1.2669983c1.0140076-0.2750015,1.3980103-0.7490005,1.6880188-1.1030045
	c0.3200073-0.3959961,0.5029907-0.5909958,1.1589966-0.7049942l0.4620056-0.0810013l0.0969849-0.2710037
	C142.7366028,56.8918991,142.3146057,56.6539001,142.0826111,56.5278931"/>
<path class="st2" d="M128.5231323,66.7374878c0.2829895,0.1310043,0.9829712,0.5470047,1.3829956,0.3420029
	c0.644989-0.3290024,1.1399841-0.1110001,1.3029785,0.1930008c0.4750061,0.8700027,0.8130188-0.6640015,0.6060181,1.3700027
	c-0.0580139,0.5799942-0.1799927,0.9199982-0.5,1.1100006c-0.3200073,0.1919937-0.2960205,0.4529953-0.3399963,0.6699982
	c-0.0460205,0.2149963,0.1259766,1.4199982,0.1569824,1.6279984c0.1990051,1.3560028-0.1900024,0.3649979-0.4549866-0.0080032
	c-0.25-0.3669968-0.6809998-0.7259979-0.8900146-0.621994c-1.1359863,0.5509949-0.8509827-0.4280014-0.9519958-0.7890015
	c-0.1019897-0.3600006-0.2900085-0.8779984-0.368988-1.0240021c-0.085022-0.1529999-0.5310059-0.5329971-0.3099976-1.086998
	c0.21698-0.5490036-0.0420227-1.1080017-0.0570068-1.2659988C128.0831299,67.0984879,128.1811218,66.6654892,128.5231323,66.7374878
	"/>
<path class="st4" d="M140.8588257,59.4822922c-0.2410278,0.3510056-0.4220276,0.3680038-0.6870117,0.503006
	c-0.2610168,0.1329956-0.4309998,0.2569962-0.7640076,0.6179962c-0.32901,0.3590012-0.1950073,0.7809982-0.2479858,1.223999
	c-0.0480042,0.4420013-0.1849976,0.8920059-0.3160095,1.4470062l-0.0369873,0.5519943c0,0-0.3960266-0.2900009-0.8910217-0.6800003
	c-0.4969788-0.385994-0.5050049-0.4959946-0.8079834-0.7939987c-0.3070068-0.2979965-0.5169983-0.6039963-0.5700073-1.1439972
	c-0.053009-0.538002-0.3250122-0.5130005-0.5369873-0.8199997c-0.2120056-0.3079987-0.4880066-0.2820053-0.8720093-0.4620056
	c-0.3829956-0.1809998-0.6679993-0.1549988-1.3170166-0.1989975c-0.4400024-0.034996-0.4549866-0.1070023-0.5809937-0.1329956
	l0.2720032,2.7799988c0.2160034,2.2299957,0.29599,4.6589966-0.5839844,6.2709961
	c0.1199951,0.7570038,0.1039734,1.4189987-0.3310242,1.7310028c-0.5299988,0.3850021-0.5829773,1.3919983-0.4530029,1.8479996
	c0.1220093,0.4580002-0.4259949,1.3939972-0.5409851,1.875c-0.1210022,0.4789963-0.4309998,1.060997-0.57901,0.4089966
	c-0.1459961-0.6569977-0.8970032-2.1790009-1.5329895-1.7569962c-1.0799866,0.7060013-1.8559875-1.0250015-1.9129944-1.6190033
	c-0.0599976-0.598999-0.7200012-1.4700012-0.7200012-1.4700012c-0.0859985-0.1179962-0.0090027-0.3569946,0.098999-0.5970001
	c-0.5410156-0.7449951-0.8770142-1.8069992-1.0119934-3.2129974l-2.3320007-24.6039886
	c-0.2350159-2.4060059,0.0279846-3.9020081,0.8569946-4.852005c0.6090088-0.7030029,1.5059814-1.0870056,2.723999-1.1790009
	c0.6690063-0.0659943,1.3139954,0.1329956,1.8729858,0.5769958c1.2060242,0.9609985,1.9950256,3.0250092,2.2820129,5.9759979
	l0.2630005,2.7259979l8.5230103-0.8279877l-0.3630066-3.7220001c-0.4840088-4.9759979-2.0410156-8.5449982-4.6280212-10.6070099
	c-0.0929871-0.071991-0.1940002-0.1340027-0.2909851-0.2039948c-0.4049988,0.0110016-0.8089905,0.0500031-1.2839966,0.2169952
	c-0.1119995,0.2510071-0.4060059,0.9990082-0.355011,1.5390015c0.052002,0.5400085,0.1740112,0.8549957,0.3200073,1.3870087
	c0.1409912,0.5309906,0.0809937,0.8619995,0.1260071,1.2949982c0.0419922,0.4319916-1.2530212,2.0090027-1.3829956,2.772995
	c0.0369873-0.2200012-0.3580017-0.4660034-0.6500244-0.7899933c-0.2939758-0.3209991-0.6799927-1.6880035-0.6799927-1.6880035
	s-0.2359924-0.4459991-0.6210022-0.6289978c-0.3819885-0.1809998-0.4839783-0.404007-0.8169861-1.0270081
	c-0.3340149-0.6230011-0.5150146-0.6040039-1.0299988-1.2099915c-0.5169983-0.6040039-0.4750061-0.1710052-0.8410034-0.1360016
	c-0.3580017,0.0359955-0.348999-0.2180023-0.8510132,0.2669983c-0.5059814,0.4830017-0.7799988,0.5319977-0.8150024,1
	c-0.1529846,2.1649933-1.3280029-0.2120056-1.3280029-0.2120056s-0.1939697-0.7299957-0.6669922-0.9029999
	c-0.4769897-0.1689911-0.4389954-0.5099945-0.690979-0.2679901c-0.2520142,0.2409973-0.632019,0.8309937-0.632019,0.8309937
	l-0.2279968,1.4019928c0,0-0.5939941-0.5039978-1.0870056,0.8160095c-0.190979,0.5070038-0.8609924-0.3190002-1.1040039-1.6600037
	c-0.0769958-0.4120026-0.5289917-0.7120056-0.7409973-1.0159912c-0.2129822-0.3090057-0.5579834-0.0570068-0.5579834-0.0570068
	s-1.0660095,0.302002-1.427002,0.3540039c-0.0360107,0.0059967-0.0679932,0.0149994-0.105011,0.022995
	c-1.9769897,2.7169952-2.6940002,6.7579956-2.1489868,12.3580017l1.9830017,20.423996
	c0.59198,6.0909958,2.223999,10.1240005,4.9869995,12.3259964c2.0480042,1.6310043,4.7120056,2.2639999,8.1409912,1.9319992
	c10.8999939-1.0589981,12.4459839-8.9289932,11.822998-15.345993l-0.4389954-4.5180054
	c-0.0620117,0.0070038-0.1270142,0.0160065-0.177002,0.0220032
	C141.3208008,58.664299,141.0978088,59.1332932,140.8588257,59.4822922"/>
<path class="st4" d="M152.5179138,35.6459961l-0.0440063-0.4559937l0.4750061-0.0460052l11.7389832-1.1399994l-0.7619934-7.8580017
	c-0.196991,0.0370026-0.3800049,0.0670013-0.5190125,0.1100006l-1.1820068,1.5630035c0,0-1.1669922,3.3359985-2.9399719,3.7649994
	c0,0-1.6990051-3.3150024-1.9440002-1.5529938c-0.1490173,1.0670013-2.0810242,1.3419952-4.5600281-0.7089996
	c-1.0209961-0.8480072-2.0479736,0.0739899-2.8409729,0.6269989c-0.7750244,0.5429993-0.4260254,0.5769958-1.4440002,1.4779968
	c-0.8200073,0.7279968-0.9770203,2.5169983-1.131012,3.253006c0,0-0.4020081-1.8440094-1.776001-2.6380005
	c-1.178009-0.6790009-1.3850098-2.8619995-1.7879944-3.2600098c-0.2380066-0.2359924-0.4769897-0.5179901-0.6180115-0.6849976
	l4.632019,47.7019958l21.3779907-2.0769958l-0.730011-7.4869995c-0.4129944,0.3759995-0.9069824,0.9990005-0.9069824,0.9990005
	c-0.9700012,0.9860001-1.9160156,1.4749985-2.2709961,3.1489944c-0.0840149,0.3650055-0.9860229,1.3759995-0.9860229,1.3759995
	c-0.3580017-1.2659988-0.1940002-0.4089966-0.9700012-1.8939972c-0.3989868-0.7509995-0.7089844-1.538002-2.0469971-1.4860001
	c-0.7319946,0.0299988-1.2089844-0.2630005-1.7369995-0.8249969c-0.4499817-0.4810028-1.8349915-0.0510025-2.0650024-0.4560013
	c-0.2449951-0.435997-0.5039978-0.8740005-0.867981-1.2689972l-0.6759949,0.0649948l-0.4770203,0.0470047l-0.0449829-0.4570007
	l-1.0420227-10.7410049l-0.0449829-0.4589996l0.4750061-0.0459976l11.3599854-1.1019974l-0.6319885-6.4929962l-0.9609985,0.1529999
	c-0.5240173,0.8280029-0.0240173,1.2689972-0.3210144,2.1860046c-0.3200073,0.6199951-0.8590088,0.8470001-1.1080017,0.9649963
	c-0.6560059,0.3179932-0.3779907,0.8430023-0.7669983,0.8690033c-0.4129944-0.0700073-1.1049805-1.2170105-1.4029846-1.7470093
	c-0.0970154-0.1790009-0.2870178-0.3889923-0.4060059-0.5609894l-0.7109985-0.7990112
	c-0.6629944,0.2120056-0.9570007,2.0350037-1.5429993,2.2200012c-0.5630188-1.8670044-1.6629944-1.9429932-1.9330139-2.6239929
	l-0.0440063-0.1119995l-0.1059875-0.0880127c-0.3309937-0.2749939-0.7349854-0.5079956-1.1239929-0.7299957
	c-0.7200012-0.4169922-1.2290039-0.7350006-1.4049988-1.1450043l-0.2480164,0.026001l-0.0440063-0.4609985L152.5179138,35.6459961z"
	/>
<path class="st4" d="M188.2371216,23.8450928c0.4969788,0.1370087-1.1350098,1.0250092-1.1860046,1.7630005
	c-0.1130066,1.6840057-0.9349976,2.8000031-0.8950195,2.1600037c0.053009-0.7749939-0.7729797-0.92099-1.3719788-1.3359985
	c-0.6000061-0.4189911-1.151001-0.6949921-1.5390015-0.9219971c-0.3940125-0.2259979-1.052002,0.1009979-1.4040222,0.3919983
	c-0.3479919,0.2920074-1.4949951,1.2590027-1.8280029,1.8619995c-0.2829895,0.4990082-1.6239929,0.3580017-1.5929871,1.4250031
	c0.0150146,0.4879913-2.0239868-1.4150085-2.1669922-1.6620026c-0.1440125-0.25-1.5820007-2.0189972-1.8450012-1.2259979
	c-0.3179932,0.9669952-0.6650085,2.4080048-1.4429932,3.2160034c-0.3150024,0.3320007-0.210022,1.4249878-0.3130188,1.7039948
	c-0.6049805,1.5970001-0.821991-0.0559998-0.821991-0.0559998s-0.8819885-3.4490051-1.6480103-3.5839996
	c-0.4949951-0.0839996-1.3339844-0.2200012-1.6019897-1.2050018c-0.072998-0.2709961-0.29599-0.6490021-0.5029907-0.9599915
	l4.6499939,47.8889847l21.4039917-2.0789948l-0.7550049-7.776001l-0.4869995,0.8209991
	c-1.1459961,0.4420013-3.2399902,1.8710022-3.6730042,2.7129974c-0.2389832,0.4599991-0.4199829,1.6840057-0.7599792,1.9179993
	c0,0-0.7449951-1.3799973-1.1329956-1.8479996c-0.3050232-0.3740005-0.2430115-1.5250015-0.7070007-1.6579971
	c-0.4620056-0.1350021-0.8420105-0.3199997-1.2150269-0.0690002c-0.368988,0.2519989-0.5609741,0.9530029-0.5609741,0.9530029
	c-0.1970215,0.2879944-0.5920105,1.6039963-0.5920105,1.6039963c-0.894989,0.4140015-1.2619934-1.9589996-1.8070068-2.8799973
	c-0.3339844-0.5719986-0.6809998-1.1590042-1.2770081-1.6320038v-0.022995l-0.3119812,0.0289993l-0.4590149,0.0449982
	l-0.0419922-0.4449997l-1.0449829-10.7440033l-0.0420227-0.447998l0.4570007-0.0449982l11.375-1.1050034l-0.6390076-6.5909882
	c-0.5429993-0.2200012-1.2229919-0.1390076-1.2229919-0.1390076c-0.5039978,0.75-1.0690002,1.1439972-0.8819885,1.6889954
	c-0.2799988,1.9490051-1.1910095,2.2690125-1.3380127,1.480011c-0.0849915-0.8639984-1.5339966-1.9000092-1.2510071-1.5279999
	c0,0-0.6469727-1.1790009-1.519989,0.0319977c-0.3089905,0.4369965-0.9899902,0.3240051-1.0870056,1.5370026
	c-0.6489868-1.4080048-1.2079773-1.6529999-1.4599915-2.2669983l-0.5499878-0.4150085l-0.0550232-0.5950012
	c-0.315979-0.2460022-0.5130005-0.0699921-0.8859863-0.2709961c-0.598999-0.322998-1.0339966-0.5830078-1.2480164-0.8880005
	l-0.1149902,0.0110016l-0.4580078,0.0439911l-0.0439758-0.4449921l-0.8880005-9.1519928l-0.0440063-0.4490051l0.4599915-0.0440063
	l11.7539978-1.1409912l-0.7640076-7.848999C188.4541016,23.7530975,188.118103,23.8110962,188.2371216,23.8450928"/>
<g class="st5">
	<path class="st6" d="M27.9330139,36.3989868c1.0259705-1.2279968,1.7609863-1.8239899,2.4579773-1.9919891
		c0.026001-0.0070038,0.0490112-0.0110016,0.0679932-0.0140076c0.0100098,0.1230011-0.0119934,0.3730011-0.1879883,0.7380066
		l-0.0319824,0.0749969c-0.059021,0.154007-0.1370239,0.322998-0.2140198,0.4920044
		c-0.0849915,0.1859894-0.1699829,0.3730011-0.2259827,0.5159912c-1.401001,3.2060089-2.7290039,7.0400085-0.5370178,8.2350006
		c0.4970093,0.2649994,1.0939941,0.3010101,1.7270203,0.1029968c0.9789734-0.3059998,1.9699707-1.1609955,2.4629822-2.1239929
		c0.2350159-0.4530029,0.4680176-0.9689941,0.6600037-1.4539948l1.0180054-2.1600037
		c0.4989929-1.0410004,1.0639954-2.2210083,1.7940063-3.651001l1.8809814-3.8209991
		c0.7780151-1.5709991,1.1750183-2.8040009,0.5899963-3.7149963c-0.5789795-0.9029999-1.7689819-0.8680115-2.1289978-0.8560028
		h-1.6419983l-0.1749878,0.0789948c-1.980011,0.3209991-2.678009,0.4309998-3.1960144,0.4840088l-1.5759888,0.1519928
		l-0.2900085,0.0250092c-3.1049805,0.7149963-3.5879822,0.818985-3.9289856,0.8589935L25.5,28.4359894
		c-0.973999,0.0650024-1.098999,0.0740051-1.3240051,0.1340027c-1.3609924,0.3350067-1.7600098,0.4219971-1.9410095,0.4219971
		l-3.4199829,0.5100098c-3.5150146,0.5579987-4.8389893,1.821991-5.3170166,2.7599945
		c-6.1409912,11.2519989-6.25,11.5870056-6.3089905,12.1390076C7.17099,44.5279999,7.1730042,44.6380005,7.177002,44.7319946
		l-0.0169983,0.0890045l0.0169983,0.147995c0.1619873,1.4060059,0.8630066,1.8899994,1.446991,2.0559998
		c1.7860107,0.4559937,2.5830078-0.5149994,3.8390198-2.276001l1.1719971-1.6580048l0.0559998-0.0889893
		c1.5879822-2.8460083,1.9769897-3.5370026,2.375-4.0859985c1.09198-1.6570129,1.09198-1.6570129,2.1069946-1.7740021
		L19.375,36.9789886h0.1170044l0.473999-0.1399994c-0.302002,0.6210022-0.7680054,1.4720001-1.1669922,2.2020111
		c-0.3150024,0.5439911-0.6040039,1.1139984-3.2120056,6.4379883l-2.3040161,4.7430115l-3.5959778,7.0279922L9.552002,57.6039886
		c-3.5220032,8.0350037-3.6900024,8.1870041-4.9880066,8.4110031c-0.2900085,0.0149994-0.5610046,0.0909958-0.7829895,0.1529999
		l-0.2050171,0.0589981C0.6860046,67.2099915,0.0360107,69.2169876,0,70.7509918
		c0,1.4959946,0.6350098,2.2749939,2.0320129,2.5189972c0.5189819,0.1060028,0.8869934,0.1559982,1.1919861,0.1559982
		c0.1799927,0,0.3389893-0.0169983,0.493988-0.052002l0.5700073-0.1199951
		C4.625,73.1839905,4.868988,73.1319885,4.9169922,73.1269913h1.0549927l0.382019-0.0610046h0.2059937l1.3250122-0.4229965
		c1.1949768-0.3420029,2.1029968-0.5579987,2.7559814-0.7130051c3.0899963-0.6999969,3.9590149-1.1509933,4.7449951-3.6879959
		c0.473999-1.7200012-0.0599976-3.2360001-1.3929749-3.9530029l-0.1849976-0.0769958
		c-0.1330261-0.0400009-0.2440186-0.072998-0.3450012-0.1149979l-0.1100159-0.0470047l-0.1019897-0.0159988
		c0.5029907-1.1790009,1.7799988-3.9020004,4.9709778-10.1750031c0.4140015-0.8689957,0.8780212-1.7559967,1.3280029-2.612999
		c0.178009-0.3399963,0.3570251-0.6819916,0.5450134-1.0449982l3.6699829-6.697998
		C26.6809998,38.1929932,27.3819885,37.0599976,27.9330139,36.3989868"/>
	<path class="st6" d="M51.989624,57.6473923c0.2029724-0.3929977,0.3509827-0.7739944,0.4599915-1.0659943
		c2.1999817-5.2460022,2.4609985-6.9560013,0.2510071-9.8909988c-1.3920288-1.7980042-2.5230103-2.4160004-4.6670227-2.5440063
		c-1.3029785-0.0589905-2.071991,0-2.696991,0.201004c-0.8120117,0.2230072-1.3439941,0.3650055-1.7019958,0.4589996
		c0.32901-0.5789948,0.7770081-1.3049927,1.117981-1.8580017c0.4380188-0.6819916,0.8240051-1.3470001,1.2270203-2.0500031
		c3.7479858-6.9989929,4.5679932-9.4269867,3.6569824-10.8239899c-0.6129761-0.9410095-1.7599792-0.9790039-2.5839844-0.9199982
		c-0.2690125,0.0039978-0.5400085,0.0410004-0.8080139,0.1119995h-0.0999756l-4.4590149,1.4189911l-0.3410034,0.1450043
		c-0.769989,0.3150024-1.5169983,0.9519958-2.0469971,1.7480011l-0.0239868,0.0370026
		c-0.375,0.621994-0.5339966,1.2929993-0.5460205,2.3280029c0,0.4259949,0.0830078,0.8829956,0.2340088,1.2869873
		l0.0570068,0.1260071c0.4320068,0.7899933,1.1430054,1.2700043,1.9119873,1.2919922
		c-0.5830078,1.1370087-1.6520081,3.0120087-2.2489929,4.0600128c-0.29599,0.5110016-0.5920105,1.0849915-2.2550049,4.4199982
		l-1.5249939,3.052002l-0.197998,0.4680023c-5.9500122,13.0499878-7.9940186,15.856987-8.4920044,16.4189911
		c-0.5480042,0.1029968-1.1799927,0.3279953-1.9609985,0.6959991c-2.1010132,1.0149994-2.9750061,2.4089966-2.67099,4.2699966
		c0.3079834,1.7980042,0.9400024,2.197998,2.802002,2.197998c0.5889893,0,1.3009949-0.0389938,2.1640015-0.0879974
		l0.2919922-0.0169983c0.3710022-0.0029984,0.7590027-0.0739975,1.1820068-0.215004
		c3.9039917-0.9440002,6.1059875-2.0519943,6.5549927-5.1719971c0.2599792-1.8320007-0.5859985-2.2740021-1.1300049-2.3779984
		l-0.0660095-0.0110016c-0.0359802-0.0069962-0.072998-0.0130005-0.1099854-0.0189972l5.0849915-9.8390045
		c1.4530029-2.8170013,1.4530029-2.8170013,3.1749878-3.4840012l2.8480225-1.1359863
		c0.1679993-0.0580139,0.3500061-0.1100006,0.5299988-0.1620026c0.1809998-0.052002,0.3609924-0.1040039,0.4979858-0.1490021
		c2.2369995-0.6529999,2.6109924-0.3370056,2.6140137-0.3339996c0.0149841,0.0169983,0.3659973,0.4389954-0.6809998,3.2569962
		c-0.1700134,0.461998-0.3890076,0.9899979-0.6230164,1.5l-3.1689758,6.8359985l-0.1030273,0.2200012
		c-0.5679932,1.2169952-0.5679932,1.2169952-1.2469788,1.4219971l-1.1260071,0.3990021l-0.4039917,0.1559982
		c-0.4200134,0.1210022-0.8399963,0.3040009-1.3099976,0.5699997c-0.9750061,0.538002-1.9110107,1.9570007-1.7280273,3.288002
		c0.0830078,0.7210007,0.4140015,1.2590027,1.1410217,1.8559952c0.6159973,0.5110016,1.4790039,0.6360016,3.5429993,0.5139999
		l1.2869873-0.060997l0.0939941-0.0090027c0.322998-0.0459976,0.6940002-0.095993,1.0110168-0.095993l0.144989-0.0110016
		c2.2200012-0.3320007,2.6640015-0.4080048,3.4530029-0.8170013c1.3970032-0.6689987,2.7579956-2.4830017,2.5310059-4.5139999
		c-0.1149902-1.1610031-0.5710144-1.7570038-1.3559875-1.7730026l-0.1540222-0.0079956
		c-0.0109863-0.0009995-0.0220032-0.0009995-0.0339966-0.0019989c0.2829895-0.6650009,0.8980103-1.8450012,1.6719971-3.3290024
		C51.2655945,59.0413971,51.607605,58.3853989,51.989624,57.6473923"/>
	<path class="st6" d="M74.3470154,45.9537964c-0.0419922,0.2449951-0.1029968,0.5-0.2470093,0.8159943l-0.0599976,0.1750031
		c-0.04599,0.1900024-0.1940002,0.4860077-0.3359985,0.7730103l-0.0599976,0.1199951
		c-2.1679993,4.2359924-2.3059998,4.2719955-3.1199951,4.4889984l-1.6990051,0.5469971l-0.7259827,0.1589966l-2.1890259,0.5800018
		l-0.2319946,0.0200043c-0.8320007,0.1709976-1.5149841,0.3129959-2.0820007,0.4349976l1.6610107-1.6949997
		c1.1940002-1.1429977,2.4039917-2.1839981,3.5950012-3.0920029c1.3379822-1.0119934,2.368988-1.7059937,3.2489929-2.1859894
		C73.2380066,46.4658051,73.9290161,46.1277924,74.3470154,45.9537964 M79.2070313,41.6727905
		c-1.6800232-3.071991-3.8680115-2.5049896-8.1040039-0.5969849c-1.6159973,0.6929932-3.5740051,2.0359955-6.3540039,4.3569946
		c-1.723999,1.4629974-3.2380066,2.9409943-4.6150208,4.5050049c-1.4219971,1.5429916-2.815979,3.3349915-4.1419983,5.3239899
		c-1.1839905,1.7770004-2.2289734,3.6159973-2.940979,5.1780014c-0.7650146,1.6729965-1.2790222,3.2399979-1.5280151,4.6539993
		c-0.4889832,2.7019958-0.2420044,4.647995,0.7530212,5.947998c0.8009949,1.0439987,2.0759888,1.6470032,3.7969971,1.7929993
		c0.1719971,0.0139999,0.3459778,0.0210037,0.5239868,0.0210037c1.6019897-0.0010071,3.4490051-0.5740051,6.6579895-2.0310059
		c1.2620239-0.5499954,2.1900024-1.0130005,3.0240173-1.5130005l1.5220032-1.0119934
		c1.8569946-1.2450027,2.8039856-2.25,3.3719788-3.5730057c0.6119995-1.3699951,0.6070251-2.3829956-0.0139771-3.0130005
		c-0.2369995-0.2419968-0.9219971-0.7449951-2.1400146-0.2220001l-0.1040039,0.0530014
		c-0.144989,0.0830002-0.2989807,0.1679993-0.5189819,0.2900009c-0.2149963,0.1190033-0.4920044,0.2720032-0.8959961,0.4980011
		c-0.5480042,0.3219986-1.0710144,0.6049957-1.5950012,0.8899994l-0.2410278,0.1319962
		c-3.1219788,1.5930023-5.2519836,2.4290009-6.8869934,2.7030029l-1.2389832,0.1200027
		c-0.90802,0.0779953-1.1119995-0.1050034-1.1130066-0.1070023c-0.0020142-0.0019989-0.1589966-0.2679977,0.1900024-1.3219986
		c0.8659973-2.6330032,1.196991-2.8470001,1.802002-3.038002l0.6950073-0.2579956l1.1129761-0.3220062l4.3699951-1.159996
		c4.1090088-1.086998,4.7930298-1.2639999,5.1130066-1.2970047l1.1920166-0.1159973l0.5549927-0.1240005
		c2.7850037-0.397995,3.5629883-1.3659973,5.6419983-5.2639999l1.177002-2.2060013l0.3359985-0.7630005
		c0.2099915-0.3919983,0.3989868-0.8209991,0.5809937-1.2359924l0.1180115-0.2700043
		C80.4180298,45.7807922,80.3860168,43.7417908,79.2070313,41.6727905"/>
	<path class="st6" d="M239.934906,59.0573883c-0.1330566-0.2889938-0.3810425-0.8269958-1.0010376-0.9959946
		c-0.8029785-0.2190018-1.3619995,0.1689987-4.0479736,2.0339966l-0.2280273,0.1580048
		c-1.098999,0.7490005-2.572998,1.5809937-4.4989624,2.5410004c-3.803009,1.8559952-6.4240112,2.720993-8.2460022,2.720993
		c-1.9000244,0-2.3850098-0.322998-2.5050049-0.5149994c-0.3000183-0.4809952,0.1289978-1.9199982,1.2819824-4.284996
		c0.4960022-1.0419998,1.2660217-2.3069992,3.9000244-5.9860001l0.3099976-0.4150009
		c0.4639893-0.6220016,1.0069885-1.348999,1.5889893-2.1029968c4.361969-5.5850067,8.5969543-10.1889954,11.934967-12.9730072
		c2.3450317-2.0069885,3.8140259-3.098999,4.4260254-3.4639893c1.2789917-0.8010101,2.1480103-1.2770081,2.5939941-1.4210052
		c0.0299683,0.2799988,0.0280151,0.8350067-0.09198,1.9349976c-0.0570068,0.352005-0.2700195,1.3500061-1.0290527,3.0230103
		l-1.3289795,2.9869995l-0.0750122,0.2480011c-0.3989868,1.2019958-0.6900024,2.4529877,0.3340454,3.4549866
		c0.4579468,0.4400024,1.0719604,0.6350098,1.723999,0.552002c0.9249878-0.1169891,1.8659668-0.7849884,2.4619751-1.7519989
		l0.0980225-0.1620026c0.2369995-0.3899994,0.480957-0.7939911,0.7009888-1.220993l0.8770142-1.7080078l1.0599976-1.8349915
		l2.8599854-5.4320068l0.3449707-0.6909943c2.0400391-3.7610016,2.677002-5.1699982,1.2330322-7.1139984
		c-0.2860107-0.423996-0.6740112-0.7200012-1.184021-0.9029999c-0.9550171-0.3820038-2.1950073,0.4029999-3.0209961,1.9109955
		c-0.2379761,0.4069977-0.4290161,0.7330017-0.5769653,0.9840088c-0.3050537-0.2320099-0.6970215-0.5050049-1.2020264-0.8460083
		c-0.7189941-0.5330048-1.8800049-0.6900024-3.2379761-0.4459991c-1.2940063,0.1779938-3.0100098,0.9609985-5.3980103,2.4629974
		c-3.1310425,1.9649963-6.9169922,5.2570038-11.2460022,9.776001c-2.6520081,2.7149963-4.3200073,4.7050018-6.8720093,8.1990051
		c-0.8789978,1.2350006-1.5690002,2.2259979-2.1769714,3.1320038c-1.4920044,2.283989-2.4309998,3.8489914-3.1410217,5.2309875
		l-0.0079956,0.0149994c-0.2829895,0.576004-0.5629883,1.1840057-0.8099976,1.7550049
		c-1.9490051,4.4690018-2.5190125,7.4700012-1.9030151,10.0410004c0.9310303,3.7579956,2.8740234,5.3860016,6.48703,5.4440002
		c0.0969849,0.0029984,0.1919861,0.0049973,0.2889709,0.0049973c1.973999,0,3.9230042-0.5699997,6.6330261-1.9300003
		c0.8639832-0.4379959,1.75-0.9629974,2.6239624-1.5540009C238.4819031,64.2063904,241.0218811,61.4683914,239.934906,59.0573883"/>
	<path class="st6" d="M260.8678894,52.7271957c-0.2960205,0.8869934-0.6500244,1.7229996-1.1199951,2.6409988
		c-2.9970093,6.0049973-6.4459839,9.8929977-10.2269897,11.5479965c-1.8300171,0.7450027-2.5090332,0.6279984-2.7180176,0.5429993
		l-0.0930176-0.0339966c-0.55896-0.1640015-1.0869751-0.3199997-0.980957-2.3950043
		c0.0139771-0.4759979,0.09198-0.935997,0.2359619-1.4049988l0.0020142-0.0069962
		c0.5139771-1.7210007,1.0120239-2.9640045,1.302002-3.5429993c0.1380005-0.2630005,0.3270264-0.6240005,0.8380127-1.4740067
		c2.1710205-3.5459976,4.2019653-5.909996,6.9729614-8.1349869c0.1240234-0.0900116,0.2490234-0.1860046,0.3760376-0.2810059
		c0.322998-0.2440033,0.6560059-0.4960022,0.9509888-0.6690063l0.0560303-0.0359955
		c1.9989624-1.3659973,3.1159668-1.7779999,3.7909546-1.7779999c0.5980225,0,0.8480225,0.3249969,1.0540161,0.5930023
		C261.691864,48.7601929,261.9388733,49.6492004,260.8678894,52.7271957 M267.0539246,53.6431885
		c0.7279663-2.1679993,1.0619507-4.0599976,0.992981-5.6149902c-0.1050415-2.9810028-1.0419922-4.2490082-3.8970337-5.2330017
		c-0.8540039-0.253006-1.7669678-0.3549957-2.7069702-0.3070068l-1.3870239,0.1800079
		c-1.8389893,0.1759949-2.9259644,0.6719971-6.2609863,2.5460052c-1.9849854,1.0869904-4.4359741,3.1009979-6.5490112,5.3799896
		c-2.2179565,2.3470001-3.6619873,4.4420013-5.7359619,8.3269958l-0.1760254,0.3540039
		c-0.1870117,0.3720016-0.3590088,0.7170029-0.5089722,1.0660019c-1.5350342,3.3349991-1.9130249,5.7770004-1.2630005,8.1559982
		c0.1679688,0.7519989,0.4679565,1.3840027,0.8919678,1.8799973c0.9559937,1.2360001,1.7130127,1.6910019,3.5289917,2.1139984
		l0.894043,0.1730042l2.3509521,0.1709976l0.4260254,0.0019989c0.3009644,0,0.6740112-0.0439987,1.0889893-0.1259995
		c3.934021-0.5469971,8.1480103-3.6269989,12.5209961-9.1489944
		C264.0909119,60.0501938,265.9299011,56.9001923,267.0539246,53.6431885"/>
	<path class="st6" d="M287.9060364,71.731987l0.0739746-0.0049973c0.5460205-0.0530014,1.1309814-0.1179962,1.7059937-0.2309952
		l0.8569946-0.1670074l1.2089844-0.423996l2.2280273-0.5019989h0.2709961l0.2620239-0.1959991
		c1.0969849-0.8219986,1.7369995-2.0080032,1.8009644-3.3380051l0.0020142-0.0299988l-0.0009766-0.0309982
		c-0.0200195-1.4680023-0.6070557-1.8860016-1.1589966-1.9520035l-0.0790405-0.022995
		c0.3330078-0.6650009,1.0579834-1.8800049,1.9240112-3.3270035c0.7210083-1.2279968,1.2730103-2.2549973,1.7340088-3.2289963
		c3.2789917-6.8810043,3.6069946-9.2639923,1.6929932-12.1100006c-0.6589966-1.0639954-1.9169922-1.5809937-3.8469849-1.5809937
		c-0.7770386,0-1.4800415,0.0829926-2.2160034,0.2630005c-2.31604,0.5789948-3.8779907,1.1839905-4.9119873,1.9029999
		l-0.5859985,0.3659973l-0.5780029,0.4039917c-0.0200195,0.0120087-0.0390015,0.0230103-0.0580444,0.0340118
		c-0.0169678-0.0390015-0.0339966-0.0810089-0.052002-0.1240082c-0.1389771-0.2939911-0.5979614-1.0639954-1.8709717-1.8580017
		c-0.5930176-0.3649902-1.2440186-0.6129913-1.9160156-0.7359924c-1.5700073-0.3160095-3.0629883-0.3090057-4.1939697,0.0169983
		l-0.9710083,0.2689972c0.1140137-1.5769958-0.7579956-2.2890015-1.6060181-2.6100006
		c-0.9680176-0.4219971-2.3220215-0.1629944-4.6539917,0.8880005c-2.1259766,0.9730072-3.0510254,1.7870026-3.5180054,3.1049957
		c-0.4520264,1.1480103-0.1420288,2.1330109,0.8380127,2.7490082c0.2000122,0.1409912,0.4769897,0.3000031,0.882019,0.3339996
		l0.2819824,0.0820007c-0.2810059,0.6119995-0.9830322,1.7819901-1.447998,2.5589905l-0.1260376,0.2250061
		c-0.3849487,0.6919937-0.9119873,1.6379929-2.3579712,4.3289948c-1.1489868,2.1559982-1.8590088,3.5429993-2.3779907,4.6440048
		c-0.8550415,1.848999-1.7850342,3.836998-2.0900269,4.2529984c-0.8040161,0.3059998-1.677002,0.7149963-2.7260132,1.2719955
		c-1.2890015,0.6720047-2.4319458,2.564003-2.0199585,4.1320038c0.3739624,1.2139969,1.5999756,1.4850006,2.7489624,1.5910034
		l0.5570068,0.0039978l2.2590332-0.2900009l2.2340088-0.3359985c2.6549683-0.5040054,3.9579468-1.1959991,4.1869507-3.7600021
		c0.0970459-1.0619965,0.0720215-1.6809998-0.3330078-2.125c-0.2029419-0.2220001-0.4749756-0.3550034-0.776001-0.3809967
		c-0.0799561-0.0139999-0.1479492-0.0270004-0.2039795-0.0390015c0.2340088-0.590004,0.9329834-1.7490005,1.2590332-2.2919998
		c1.0639648-1.7410049,2.1349487-3.7000046,3.2719727-5.9860001c2.8920288-5.7980042,3.0319824-5.9380035,7.5109863-7.4800034
		c0.7059937-0.2489929,1.0209961-0.2630005,1.1310425-0.2539978c0.0339966,0.102005,0.0939941,0.3870087,0.0439453,1.0570068
		c-0.0439453,0.4889908-0.1709595,1.0819931-0.4019775,1.8739929c-0.0839844,0.2959976-0.4199829,1.3909988-1.223999,3.0650024
		c-2.7659912,5.9850006-3.8590088,7.7369995-4.210022,8.2220001c-0.6849976,0.1009979-1.3709717,0.3050003-1.9839478,0.5029984
		c-1.5170288,0.5309982-2.6490479,2.2910004-2.5770264,4.0359955c0.0410156,0.5910034,0.1309814,1.2610016,0.6890259,1.7260056
		c0.6919556,0.5759964,1.6799927,0.5329971,3.7699585,0.2929993l3.0110474-0.3390045l1.3249512-0.2360001
		c1.3900146-0.2719955,2.5289917-1.4710007,2.9060059-3.0749969c0.151001-0.7080002,0.3580322-1.677002-0.3619995-2.2040024
		c-0.3059692-0.2279968-0.5230103-0.3959961-0.6759644-0.5189972c0.2969971-0.5169983,0.7599487-1.4339981,1.782959-3.5910034
		c1.4609985-3.0089951,1.7890015-3.6639938,2.0830078-4.1489944c1.2340088-2.2080002,1.69104-2.727005,5.2369995-4.9740067
		c1.4509888-0.9339905,2.5910034-1.423996,3.1879883-1.5759888c0.401001-0.0660095,0.6430054-0.0780029,0.78302-0.0820007
		c-0.0109863,0.201004-0.0709839,0.5950012-0.28302,1.3479919l-0.0219727,0.0920029
		c-0.0369873,0.2060013-0.0910034,0.3720016-0.184021,0.6220016l-0.2630005,0.7509995l-0.4069824,0.9609985l-2.7459717,5.9970016
		c-2.6150513,5.7089996-2.6150513,5.7089996-3.9820557,5.8699951l-0.1409912,0.0250015
		c-0.3120117,0.0579987-0.6989746,0.1310043-1.1090088,0.3300018c-1.2659912,0.538002-2.4499512,2.2180023-2.1779785,4.0219955
		C284.5019836,71.8039932,286.2279968,71.7669907,287.9060364,71.731987"/>
	<path class="st6" d="M317.8089294,56.4322891c-1.4990234,1.4190063-3.6000366,3.003006-6.0670166,4.576004
		c-1.1779785,0.7360001-1.9940186,1.2249985-2.6779785,1.5469971l-0.3099976,0.2020035l-2.3140259,1.0209961
		c-0.4569702,0.201004-0.8009644,0.3380051-1.0609741,0.4319992c0.5109863-1,1.5390015-2.8899994,3.0429688-5.6549988
		l3.6849976-6.798996c0.4440308-0.4360046,1.1290283-0.7499924,3.2319946-1.1740036
		c1.7310181-0.3349915,2.9180298-0.2899933,3.4800415-0.1279907c1.5650024,0.3990021,1.7099609,0.5800018,1.7779541,0.7319946
		C321.0189514,52.4012909,320.6869202,53.6092911,317.8089294,56.4322891 M320.9199524,61.0302887
		c3.3729858-3.5009995,7.4819946-8.7799988,4.2409668-14.1769867c-0.7189941-1.2200012-1.9140015-2.230011-3.335022-2.8310089
		c-1.6989746-0.7850037-3.0169678-1.1029968-4.2689819-1.0299988l-1.6359863,0.1159973
		c0.09198-0.776001-0.0469971-1.4779968-0.7210083-2.0839996l-0.0549927-0.04599
		c-1.0100098-0.7830048-1.9710083-0.4960022-2.7620239-0.1170044c-1.9629517,0.8950043-2.3289795,1.0240021-2.6199951,1.1279907
		l-1.0960083,0.381012l-0.1170044,0.0299988l-1.4959717,0.7489929c-1.6040039,0.7839966-2.1929932,1.2839966-2.7420044,2.8800049
		c-0.3660278,1.0319977-0.3380127,1.826004,0.0869751,2.4279938c0.2600098,0.3690033,0.7910156,0.8090057,1.8380127,0.8090057
		h0.2990112c-0.2030029,0.4169922-0.4500122,0.8999939-0.6459961,1.2850037l-2.5230103,4.92099
		c-8.276001,16.026001-9.7669678,18.9140015-10.6969604,20.8889999c-1.9980469,4.2910004-1.9980469,4.2910004-3.31604,4.4990005
		c-0.3889771,0.0680008-0.7669678,0.1900024-1.2669678,0.4169998c-1.3870239,0.7099991-2.2620239,2.227005-2.0280151,3.5770035
		c0.072998,0.3249969,0.1619873,0.7269974,0.4799805,1.0830002c0.6240234,0.8069992,1.2720337,1.0739975,2.2230225,1.0739975
		c0.5869751,0,1.289978-0.1019974,2.1740112-0.2419968l0.25-0.0400009c0.2709961-0.0429993,0.5759888-0.0910034,0.9219971-0.1809998
		l1.5449829-0.2810059l0.8220215-0.1679993l0.1009521-0.026001c0.1430054-0.0449982,0.2820435-0.0799942,0.4210205-0.1139984
		c0.190979-0.0479965,0.382019-0.0970001,0.5499878-0.1529999c2.8699951-0.8330002,4.3080444-1.6940002,4.2020264-4.0690002
		c-0.0230103-0.7750015-0.0570068-1.9459991-1.0830078-2.2389984l-0.072998-0.0179977
		c-0.4520264-0.0930023-0.7030029-0.1940002-0.835022-0.2639999l1.059021-2.2910004
		c1.7449951-3.689003,2.4260254-4.8820038,2.6790161-5.2669983l1.2689819-0.2560043h0.1019897l4.5930176-1.5359955
		l0.5269775-0.1570053l0.0790405-0.0270004c1.6349487-0.6419983,3.4899902-1.6019974,5.5130005-2.8519974
		C316.526947,65.0112915,319.0689392,63.0022888,320.9199524,61.0302887"/>
	<path class="st6" d="M335.360321,60.4761963c-0.0599976,0.189003-0.15802,0.4430008-0.3220215,0.7740021
		c-1.0609741,2.2189941-5.2199707,3.9949951-7.6970215,4.496994l-0.0180054,0.0040054
		c-1.5559692,0.3460007-2.3729858,0.4259949-2.7929688,0.4290009
		C325.3323059,64.8071976,329.3312683,61.4371948,335.360321,60.4761963 M340.1933289,65.4841919
		c-0.3790283-0.4529953-0.9100342-0.6149979-1.4250488-0.6539993c0.8070068-1.6489944,2.3600464-4.4869995,2.9720459-5.6059952
		c0.3369751-0.6150055,0.5859985-1.0709991,0.6789551-1.2519989c4.3080444-8.5420074,6.6210327-13.8829956,2.4230347-16.0399933
		c-5.5939941-2.803009-17.0090332,7.8519897-17.9330444,9.5029907c-0.7669678,1.2719955-0.9169922,2.2159958-0.4599609,2.887001
		c0.1569824,0.2319946,0.6270142,0.7519989,1.6270142,0.5839996c0.6209717-0.1090012,1.901001-0.9029999,5.980957-3.576004
		c2.1090088-1.3809891,4.4990234-2.9459915,5.2290039-3.2589951c1.0109863-0.4530029,1.5640259-0.6179962,1.8550415-0.6759949
		c-0.059021,0.3840027-0.2850342,1.1920013-1.0040283,2.8769989c-0.2260132,0.5090027-0.3950195,0.9269943-0.5360107,1.2719955
		c-0.2349854,0.5769958-0.3900146,0.9570007-0.5239868,1.0569992c-0.1879883,0.1399994-0.7890015,0.276001-1.6210327,0.4639969
		c-0.6219482,0.1409988-1.3959961,0.3160019-2.4229736,0.5800018c-1.0219727,0.2710037-6.1779785,2.6070023-8.3759766,3.9199982
		c-3.6490479,2.1790009-6.7950439,6.2929993-7.6710205,7.8370056c-1.5280151,2.6839981-1.7839966,4.7419968-0.7609863,6.1189957
		c1.065979,1.4370041,3.3540039,1.840004,6.440979,1.137001c1.5629883-0.348999,4.0460205-1.2949982,5.5020142-1.8659973
		c-0.1210327,0.9379959,0.2189941,1.4829941,0.5639648,1.7889938c0.3600464,0.3180008,0.8280029,0.4790039,1.4300537,0.4790039
		c0.8479614,0,1.9609985-0.3180008,3.4159546-0.9629974c3.3340454-1.5530014,4.1669922-2.5330048,4.8439941-4.526001
		C340.7043152,66.7051926,340.6272888,66.0021973,340.1933289,65.4841919"/>
	<path class="st6" d="M365.9723206,67.7344894c0.3389893-0.9039993,0.5959473-1.7639999,0.0239868-2.362999l-0.1640015-0.137001
		c-0.4210205-0.2819977-0.69104-0.4749985-0.8630371-0.6059952l4.197998-7.9810028l0.0280151-0.0540009
		c0.3380127-0.6629944,0.65802-1.2900009,0.8859863-1.8959961c1.8840332-4.5269928,1.9570313-6.9519958,0.2820435-9.2659912
		c-1.1030273-1.5370026-2.0930176-2.0360107-4.3840332-2.2240143c-1.3259888-0.1499939-2.5549927-0.0799866-3.5339966,0.1990051
		l-0.3469849,0.0919952c-0.0980225,0.026001-0.1929932,0.0510101-0.2839966,0.0750122
		c0.0289917-0.348999-0.0289917-0.6699982-0.2299805-0.9620056c-0.4280396-0.6230011-1.1850586-0.6230011-1.592041-0.6230011
		h-0.9389648l-0.3540039,0.022995c-0.4130249,0.0570068-0.8400269,0.1170044-1.3649902,0.2929993
		c-3.9540405,1.0490112-5.1400146,1.6860046-5.9330444,4.1260071l-0.0009766,0.0059967
		c-0.2949829,0.928009-0.2810059,1.6670074,0.0440063,2.2590027c0.1809692,0.3289948,0.5479736,0.7599945,1.2749634,0.9669952
		l0.0410156,0.0149994c-0.6759644,1.1620026-1.6060181,2.9670029-3.9749756,7.8069992
		c-0.8950195,1.8330002-1.5790405,3.253006-2.1130371,4.3590012c-1.690979,3.5080032-1.7609863,3.6310043-2.1049805,3.8410034
		l-0.0269775,0.0139999c-0.0440063,0.0209961-0.0910034,0.0459976-0.1480103,0.0670013
		c-1.217041,0.2890015-1.6310425,0.4089966-2.0280151,0.6439972c-1.8120117,0.9349976-1.9719849,1.8320007-2.1669922,4.310997
		c-0.026001,0.8250046,0.4489746,1.8030014,1.8540039,2.0910034c0.1989746,0.0530014,0.4959717,0.1050034,1.007019,0.1050034
		c0.4359741,0,1.0289917-0.038002,1.848999-0.1430054l2.1879883-0.3839951
		c1.3469849-0.2250061,2.427002-0.7229996,3.2160034-1.4840012c1.1380005-1.1090012,1.6999512-2.2249985,1.6259766-3.2249985
		c-0.0490112-0.6640015-0.382019-1.2509995-0.9400024-1.6539993l-0.1849976-0.114006
		c0.2630005-0.5169983,0.690979-1.3509979,1.322998-2.5779953l3.572998-6.8940048
		c2.7269897-5.1849976,3.2250366-5.7079926,5.0670166-6.598999l0.9790039-0.4349976l0.5759888-0.2169952
		c0.8449707-0.3560028,1.5020142-0.5429993,2.0869751-0.5910034c1.1340332-0.1159973,1.3520508,0.0639954,1.3530273,0.0639954
		c0.0009766,0.0019989,0.1419678,0.2150116-0.0560303,1.223999c-0.1029663,0.5870056-0.3509521,1.3000031-1.5629883,4.0020065
		l-0.1959839,0.473999l-3.4869995,7.125c-1.5479736,3.1439972-1.5479736,3.1439972-2.7319946,3.25
		c-2.3040161,0.1899948-2.96698,1.836998-3.289978,3.2699966c-0.1970215,0.9530029-0.3340454,1.9459991,0.3149414,2.6730042
		c0.7920532,0.8869934,2.2290039,0.8610001,5.1020508,0.6019974
		C363.0583191,70.9734955,364.9772644,70.3184967,365.9723206,67.7344894"/>
	<path class="st6" d="M398.1075134,43.6295929l-0.019043-0.0379944c-0.8449707-2.0159912-2.1939697-1.8769989-4.0050049-1.4179993
		c-0.2819824,0.0249939-0.5239868,0.1150055-0.7069702,0.1829987l-0.0560303,0.0209961
		c-0.9889526,0.2840118-1.6369629,0.5149994-2.1669922,0.7730103c-2.2650146,1.1100006-4.5079956,2.6109924-3.9599609,5.3679962
		c0.1309814,0.5350037,0.4499512,0.9900055,0.8869629,1.2700043c0.2030029,0.1750031,0.507019,0.3419952,0.9360352,0.3629913
		l0.302002,0.0490112c-0.132019,1.2819901-1.3140259,4.8489914-5.052002,9.8179855l-1.0400391,1.3290024l-0.0540161,0.0709991
		c-0.4219971,0.4110031-1.105957,0.8619995-3.0879517,1.8600006l-1.5419922,0.7200012l-0.1330566,0.0709991
		c-0.9029541,0.4029999-1.8319702,0.6709976-2.4449463,0.7160034c-0.0630493,0.0019989-0.1230469,0.0019989-0.1780396,0.0019989
		c-0.7099609,0-0.8599854-0.0970001-0.8619995-0.0950012c-0.3269653-0.6549988,1.3240356-4.4729996,1.8770142-5.7519989
		c0.0739746-0.1860046,0.1589966-0.3690033,0.242981-0.5510025c0.0930176-0.2009964,0.1849976-0.401001,0.2480469-0.5579987
		c1.1089478-2.3929977,2.1029663-4.3570023,3.1259766-6.1750031l0.6920166-1.2099991
		c2.4849854-4.3429871,2.6339722-4.6029968,2.2449951-6.1279907c-0.5419922-2.0559998-2.1749878-1.6800079-4.644043-1.0980072
		c-0.3989868,0.0709991-0.8029785,0.1900024-1.2049561,0.3090057l-0.3340454,0.0970001l-1.2639771,0.5289917
		c-1.5280151,0.5950012-2.3109741,1.4210052-2.7949829,2.9450073l-0.0090332,0.0289917
		c-0.1089478,0.381012-0.2299805,0.8860016-0.2189941,1.4300079c-0.026001,1.2149963,0.3519897,1.9290009,1.1240234,2.121994
		l0.1499634,0.0270081c0.0630493,0.0090027,0.125,0.0169983,0.1860352,0.026001
		c-0.1170044,0.2449951-0.3140259,0.6119919-0.6430054,1.1499939l-0.0300293,0.052002
		c-0.315979,0.5449982-0.6429443,1.1079941-1.0689697,1.9609985c-0.4749756,0.8499985-0.8469849,1.6339951-1.2410278,2.461998
		l-0.1029663,0.2170029c-2.5109863,5.6959991-2.9440308,7.7629929-1.1790161,11.3679962
		c0.197998,0.4729996,0.4840088,0.8919983,0.8699951,1.2770004c1.0530396,1.0599976,2.2659912,1.6259995,3.6170044,1.6839981
		c1.6359863,0.0500031,3.1699829-0.1429977,4.1069946-0.5169983c0.1860352-0.0749969,0.368042-0.1439972,0.5480347-0.2099991
		c-0.132019,0.262001-0.2930298,0.5709991-0.4920044,0.9339981c-0.5900269,1.0810013-1.276001,2.2229996-2.151001,3.5830002
		l-1.8840332,2.8249969c-0.0490112,0.0580063-0.0960083,0.1160049-0.1430054,0.1730042
		c-0.1129761,0.1380005-0.2099609,0.2579956-0.3259888,0.3649979l-0.065979,0.0660019
		c-0.5620117,0.6279984-1.1779785,1.1259995-1.8569946,1.5090027c-1.132019,0.5970001-2.0720215,0.6429977-3.0250244,0.1609955
		l-0.6859741-0.3679962c-3.0750122-1.6490021-3.3580322-1.8040009-4.3209839-1.7410049
		c-0.9840088,0.0029984-1.4450073,0.1560059-1.9910278,0.4550018l-0.0490112,0.0289993
		c-0.7700195,0.4810028-1.309021,1.2819977-1.4069824,2.0780029c-0.184021,1.3460007,0.4389648,2.0970001,1.8189697,3.1769943
		l0.0910034,0.064003c0.0480347,0.0299988,0.0930176,0.0660019,0.1409912,0.1019974
		c0.1160278,0.0890045,0.2590332,0.1980057,0.4430542,0.3000031l0.4039917,0.2580032l1.0799561,0.5359955
		c1.585022,0.802002,2.8810425,1.1610031,4.1719971,1.1610031h0.0030518
		c0.1949463,0.0059967,0.3899536,0.0089951,0.5839844,0.0089951c1.2619629,0,2.4779663-0.1309967,3.4099731-0.3709946
		c2.7440186-0.7249985,4.3580322-1.9380035,6.4160156-4.8390045l1.2379761-1.8679962
		c1.4420166-2.1539993,2.6199951-4.2350006,6.0060425-10.6050034l4.0319824-7.6469955l3.8099976-7.5270004l1.1210327-2.0089951
		C398.7294617,45.4315948,398.8514709,45.2145996,398.1075134,43.6295929"/>
</g>
<g>
	<path class="st7" d="M27.9330139,36.3989868c1.0259705-1.2279968,1.7609863-1.8239899,2.4579773-1.9919891
		c0.026001-0.0070038,0.0490112-0.0110016,0.0679932-0.0140076c0.0100098,0.1230011-0.0119934,0.3730011-0.1879883,0.7380066
		l-0.0319824,0.0749969c-0.059021,0.154007-0.1370239,0.322998-0.2140198,0.4920044
		c-0.0849915,0.1859894-0.1699829,0.3730011-0.2259827,0.5159912c-1.401001,3.2060089-2.7290039,7.0400085-0.5370178,8.2350006
		c0.4970093,0.2649994,1.0939941,0.3010101,1.7270203,0.1029968c0.9789734-0.3059998,1.9699707-1.1609955,2.4629822-2.1239929
		c0.2350159-0.4530029,0.4680176-0.9689941,0.6600037-1.4539948l1.0180054-2.1600037
		c0.4989929-1.0410004,1.0639954-2.2210083,1.7940063-3.651001l1.8809814-3.8209991
		c0.7780151-1.5709991,1.1750183-2.8040009,0.5899963-3.7149963c-0.5789795-0.9029999-1.7689819-0.8680115-2.1289978-0.8560028
		h-1.6419983l-0.1749878,0.0789948c-1.980011,0.3209991-2.678009,0.4309998-3.1960144,0.4840088l-1.5759888,0.1519928
		l-0.2900085,0.0250092c-3.1049805,0.7149963-3.5879822,0.818985-3.9289856,0.8589935L25.5,28.4359894
		c-0.973999,0.0650024-1.098999,0.0740051-1.3240051,0.1340027c-1.3609924,0.3350067-1.7600098,0.4219971-1.9410095,0.4219971
		l-3.4199829,0.5100098c-3.5150146,0.5579987-4.8389893,1.821991-5.3170166,2.7599945
		c-6.1409912,11.2519989-6.25,11.5870056-6.3089905,12.1390076C7.17099,44.5279999,7.1730042,44.6380005,7.177002,44.7319946
		l-0.0169983,0.0890045l0.0169983,0.147995c0.1619873,1.4060059,0.8630066,1.8899994,1.446991,2.0559998
		c1.7860107,0.4559937,2.5830078-0.5149994,3.8390198-2.276001l1.1719971-1.6580048l0.0559998-0.0889893
		c1.5879822-2.8460083,1.9769897-3.5370026,2.375-4.0859985c1.09198-1.6570129,1.09198-1.6570129,2.1069946-1.7740021
		L19.375,36.9789886h0.1170044l0.473999-0.1399994c-0.302002,0.6210022-0.7680054,1.4720001-1.1669922,2.2020111
		c-0.3150024,0.5439911-0.6040039,1.1139984-3.2120056,6.4379883l-2.3040161,4.7430115l-3.5959778,7.0279922L9.552002,57.6039886
		c-3.5220032,8.0350037-3.6900024,8.1870041-4.9880066,8.4110031c-0.2900085,0.0149994-0.5610046,0.0909958-0.7829895,0.1529999
		l-0.2050171,0.0589981C0.6860046,67.2099915,0.0360107,69.2169876,0,70.7509918
		c0,1.4959946,0.6350098,2.2749939,2.0320129,2.5189972c0.5189819,0.1060028,0.8869934,0.1559982,1.1919861,0.1559982
		c0.1799927,0,0.3389893-0.0169983,0.493988-0.052002l0.5700073-0.1199951
		C4.625,73.1839905,4.868988,73.1319885,4.9169922,73.1269913h1.0549927l0.382019-0.0610046h0.2059937l1.3250122-0.4229965
		c1.1949768-0.3420029,2.1029968-0.5579987,2.7559814-0.7130051c3.0899963-0.6999969,3.9590149-1.1509933,4.7449951-3.6879959
		c0.473999-1.7200012-0.0599976-3.2360001-1.3929749-3.9530029l-0.1849976-0.0769958
		c-0.1330261-0.0400009-0.2440186-0.072998-0.3450012-0.1149979l-0.1100159-0.0470047l-0.1019897-0.0159988
		c0.5029907-1.1790009,1.7799988-3.9020004,4.9709778-10.1750031c0.4140015-0.8689957,0.8780212-1.7559967,1.3280029-2.612999
		c0.178009-0.3399963,0.3570251-0.6819916,0.5450134-1.0449982l3.6699829-6.697998
		C26.6809998,38.1929932,27.3819885,37.0599976,27.9330139,36.3989868"/>
	<path class="st7" d="M51.989624,57.6473923c0.2029724-0.3929977,0.3509827-0.7739944,0.4599915-1.0659943
		c2.1999817-5.2460022,2.4609985-6.9560013,0.2510071-9.8909988c-1.3920288-1.7980042-2.5230103-2.4160004-4.6670227-2.5440063
		c-1.3029785-0.0589905-2.071991,0-2.696991,0.201004c-0.8120117,0.2230072-1.3439941,0.3650055-1.7019958,0.4589996
		c0.32901-0.5789948,0.7770081-1.3049927,1.117981-1.8580017c0.4380188-0.6819916,0.8240051-1.3470001,1.2270203-2.0500031
		c3.7479858-6.9989929,4.5679932-9.4269867,3.6569824-10.8239899c-0.6129761-0.9410095-1.7599792-0.9790039-2.5839844-0.9199982
		c-0.2690125,0.0039978-0.5400085,0.0410004-0.8080139,0.1119995h-0.0999756l-4.4590149,1.4189911l-0.3410034,0.1450043
		c-0.769989,0.3150024-1.5169983,0.9519958-2.0469971,1.7480011l-0.0239868,0.0370026
		c-0.375,0.621994-0.5339966,1.2929993-0.5460205,2.3280029c0,0.4259949,0.0830078,0.8829956,0.2340088,1.2869873
		l0.0570068,0.1260071c0.4320068,0.7899933,1.1430054,1.2700043,1.9119873,1.2919922
		c-0.5830078,1.1370087-1.6520081,3.0120087-2.2489929,4.0600128c-0.29599,0.5110016-0.5920105,1.0849915-2.2550049,4.4199982
		l-1.5249939,3.052002l-0.197998,0.4680023c-5.9500122,13.0499878-7.9940186,15.856987-8.4920044,16.4189911
		c-0.5480042,0.1029968-1.1799927,0.3279953-1.9609985,0.6959991c-2.1010132,1.0149994-2.9750061,2.4089966-2.67099,4.2699966
		c0.3079834,1.7980042,0.9400024,2.197998,2.802002,2.197998c0.5889893,0,1.3009949-0.0389938,2.1640015-0.0879974
		l0.2919922-0.0169983c0.3710022-0.0029984,0.7590027-0.0739975,1.1820068-0.215004
		c3.9039917-0.9440002,6.1059875-2.0519943,6.5549927-5.1719971c0.2599792-1.8320007-0.5859985-2.2740021-1.1300049-2.3779984
		l-0.0660095-0.0110016c-0.0359802-0.0069962-0.072998-0.0130005-0.1099854-0.0189972l5.0849915-9.8390045
		c1.4530029-2.8170013,1.4530029-2.8170013,3.1749878-3.4840012l2.8480225-1.1359863
		c0.1679993-0.0580139,0.3500061-0.1100006,0.5299988-0.1620026c0.1809998-0.052002,0.3609924-0.1040039,0.4979858-0.1490021
		c2.2369995-0.6529999,2.6109924-0.3370056,2.6140137-0.3339996c0.0149841,0.0169983,0.3659973,0.4389954-0.6809998,3.2569962
		c-0.1700134,0.461998-0.3890076,0.9899979-0.6230164,1.5l-3.1689758,6.8359985l-0.1030273,0.2200012
		c-0.5679932,1.2169952-0.5679932,1.2169952-1.2469788,1.4219971l-1.1260071,0.3990021l-0.4039917,0.1559982
		c-0.4200134,0.1210022-0.8399963,0.3040009-1.3099976,0.5699997c-0.9750061,0.538002-1.9110107,1.9570007-1.7280273,3.288002
		c0.0830078,0.7210007,0.4140015,1.2590027,1.1410217,1.8559952c0.6159973,0.5110016,1.4790039,0.6360016,3.5429993,0.5139999
		l1.2869873-0.060997l0.0939941-0.0090027c0.322998-0.0459976,0.6940002-0.095993,1.0110168-0.095993l0.144989-0.0110016
		c2.2200012-0.3320007,2.6640015-0.4080048,3.4530029-0.8170013c1.3970032-0.6689987,2.7579956-2.4830017,2.5310059-4.5139999
		c-0.1149902-1.1610031-0.5710144-1.7570038-1.3559875-1.7730026l-0.1540222-0.0079956
		c-0.0109863-0.0009995-0.0220032-0.0009995-0.0339966-0.0019989c0.2829895-0.6650009,0.8980103-1.8450012,1.6719971-3.3290024
		C51.2655945,59.0413971,51.607605,58.3853989,51.989624,57.6473923"/>
	<path class="st7" d="M74.3470154,45.9537964c-0.0419922,0.2449951-0.1029968,0.5-0.2470093,0.8159943l-0.0599976,0.1750031
		c-0.04599,0.1900024-0.1940002,0.4860077-0.3359985,0.7730103l-0.0599976,0.1199951
		c-2.1679993,4.2359924-2.3059998,4.2719955-3.1199951,4.4889984l-1.6990051,0.5469971l-0.7259827,0.1589966l-2.1890259,0.5800018
		l-0.2319946,0.0200043c-0.8320007,0.1709976-1.5149841,0.3129959-2.0820007,0.4349976l1.6610107-1.6949997
		c1.1940002-1.1429977,2.4039917-2.1839981,3.5950012-3.0920029c1.3379822-1.0119934,2.368988-1.7059937,3.2489929-2.1859894
		C73.2380066,46.4658051,73.9290161,46.1277924,74.3470154,45.9537964 M79.2070313,41.6727905
		c-1.6800232-3.071991-3.8680115-2.5049896-8.1040039-0.5969849c-1.6159973,0.6929932-3.5740051,2.0359955-6.3540039,4.3569946
		c-1.723999,1.4629974-3.2380066,2.9409943-4.6150208,4.5050049c-1.4219971,1.5429916-2.815979,3.3349915-4.1419983,5.3239899
		c-1.1839905,1.7770004-2.2289734,3.6159973-2.940979,5.1780014c-0.7650146,1.6729965-1.2790222,3.2399979-1.5280151,4.6539993
		c-0.4889832,2.7019958-0.2420044,4.647995,0.7530212,5.947998c0.8009949,1.0439987,2.0759888,1.6470032,3.7969971,1.7929993
		c0.1719971,0.0139999,0.3459778,0.0210037,0.5239868,0.0210037c1.6019897-0.0010071,3.4490051-0.5740051,6.6579895-2.0310059
		c1.2620239-0.5499954,2.1900024-1.0130005,3.0240173-1.5130005l1.5220032-1.0119934
		c1.8569946-1.2450027,2.8039856-2.25,3.3719788-3.5730057c0.6119995-1.3699951,0.6070251-2.3829956-0.0139771-3.0130005
		c-0.2369995-0.2419968-0.9219971-0.7449951-2.1400146-0.2220001l-0.1040039,0.0530014
		c-0.144989,0.0830002-0.2989807,0.1679993-0.5189819,0.2900009c-0.2149963,0.1190033-0.4920044,0.2720032-0.8959961,0.4980011
		c-0.5480042,0.3219986-1.0710144,0.6049957-1.5950012,0.8899994l-0.2410278,0.1319962
		c-3.1219788,1.5930023-5.2519836,2.4290009-6.8869934,2.7030029l-1.2389832,0.1200027
		c-0.90802,0.0779953-1.1119995-0.1050034-1.1130066-0.1070023c-0.0020142-0.0019989-0.1589966-0.2679977,0.1900024-1.3219986
		c0.8659973-2.6330032,1.196991-2.8470001,1.802002-3.038002l0.6950073-0.2579956l1.1129761-0.3220062l4.3699951-1.159996
		c4.1090088-1.086998,4.7930298-1.2639999,5.1130066-1.2970047l1.1920166-0.1159973l0.5549927-0.1240005
		c2.7850037-0.397995,3.5629883-1.3659973,5.6419983-5.2639999l1.177002-2.2060013l0.3359985-0.7630005
		c0.2099915-0.3919983,0.3989868-0.8209991,0.5809937-1.2359924l0.1180115-0.2700043
		C80.4180298,45.7807922,80.3860168,43.7417908,79.2070313,41.6727905"/>
	<path class="st7" d="M239.934906,59.0573883c-0.1330566-0.2889938-0.3810425-0.8269958-1.0010376-0.9959946
		c-0.8029785-0.2190018-1.3619995,0.1689987-4.0479736,2.0339966l-0.2280273,0.1580048
		c-1.098999,0.7490005-2.572998,1.5809937-4.4989624,2.5410004c-3.803009,1.8559952-6.4240112,2.720993-8.2460022,2.720993
		c-1.9000244,0-2.3850098-0.322998-2.5050049-0.5149994c-0.3000183-0.4809952,0.1289978-1.9199982,1.2819824-4.284996
		c0.4960022-1.0419998,1.2660217-2.3069992,3.9000244-5.9860001l0.3099976-0.4150009
		c0.4639893-0.6220016,1.0069885-1.348999,1.5889893-2.1029968c4.361969-5.5850067,8.5969543-10.1889954,11.934967-12.9730072
		c2.3450317-2.0069885,3.8140259-3.098999,4.4260254-3.4639893c1.2789917-0.8010101,2.1480103-1.2770081,2.5939941-1.4210052
		c0.0299683,0.2799988,0.0280151,0.8350067-0.09198,1.9349976c-0.0570068,0.352005-0.2700195,1.3500061-1.0290527,3.0230103
		l-1.3289795,2.9869995l-0.0750122,0.2480011c-0.3989868,1.2019958-0.6900024,2.4529877,0.3340454,3.4549866
		c0.4579468,0.4400024,1.0719604,0.6350098,1.723999,0.552002c0.9249878-0.1169891,1.8659668-0.7849884,2.4619751-1.7519989
		l0.0980225-0.1620026c0.2369995-0.3899994,0.480957-0.7939911,0.7009888-1.220993l0.8770142-1.7080078l1.0599976-1.8349915
		l2.8599854-5.4320068l0.3449707-0.6909943c2.0400391-3.7610016,2.677002-5.1699982,1.2330322-7.1139984
		c-0.2860107-0.423996-0.6740112-0.7200012-1.184021-0.9029999c-0.9550171-0.3820038-2.1950073,0.4029999-3.0209961,1.9109955
		c-0.2379761,0.4069977-0.4290161,0.7330017-0.5769653,0.9840088c-0.3050537-0.2320099-0.6970215-0.5050049-1.2020264-0.8460083
		c-0.7189941-0.5330048-1.8800049-0.6900024-3.2379761-0.4459991c-1.2940063,0.1779938-3.0100098,0.9609985-5.3980103,2.4629974
		c-3.1310425,1.9649963-6.9169922,5.2570038-11.2460022,9.776001c-2.6520081,2.7149963-4.3200073,4.7050018-6.8720093,8.1990051
		c-0.8789978,1.2350006-1.5690002,2.2259979-2.1769714,3.1320038c-1.4920044,2.283989-2.4309998,3.8489914-3.1410217,5.2309875
		l-0.0079956,0.0149994c-0.2829895,0.576004-0.5629883,1.1840057-0.8099976,1.7550049
		c-1.9490051,4.4690018-2.5190125,7.4700012-1.9030151,10.0410004c0.9310303,3.7579956,2.8740234,5.3860016,6.48703,5.4440002
		c0.0969849,0.0029984,0.1919861,0.0049973,0.2889709,0.0049973c1.973999,0,3.9230042-0.5699997,6.6330261-1.9300003
		c0.8639832-0.4379959,1.75-0.9629974,2.6239624-1.5540009C238.4819031,64.2063904,241.0218811,61.4683914,239.934906,59.0573883"/>
	<path class="st7" d="M260.8678894,52.7271957c-0.2960205,0.8869934-0.6500244,1.7229996-1.1199951,2.6409988
		c-2.9970093,6.0049973-6.4459839,9.8929977-10.2269897,11.5479965c-1.8300171,0.7450027-2.5090332,0.6279984-2.7180176,0.5429993
		l-0.0930176-0.0339966c-0.55896-0.1640015-1.0869751-0.3199997-0.980957-2.3950043
		c0.0139771-0.4759979,0.09198-0.935997,0.2359619-1.4049988l0.0020142-0.0069962
		c0.5139771-1.7210007,1.0120239-2.9640045,1.302002-3.5429993c0.1380005-0.2630005,0.3270264-0.6240005,0.8380127-1.4740067
		c2.1710205-3.5459976,4.2019653-5.909996,6.9729614-8.1349869c0.1240234-0.0900116,0.2490234-0.1860046,0.3760376-0.2810059
		c0.322998-0.2440033,0.6560059-0.4960022,0.9509888-0.6690063l0.0560303-0.0359955
		c1.9989624-1.3659973,3.1159668-1.7779999,3.7909546-1.7779999c0.5980225,0,0.8480225,0.3249969,1.0540161,0.5930023
		C261.691864,48.7601929,261.9388733,49.6492004,260.8678894,52.7271957 M267.0539246,53.6431885
		c0.7279663-2.1679993,1.0619507-4.0599976,0.992981-5.6149902c-0.1050415-2.9810028-1.0419922-4.2490082-3.8970337-5.2330017
		c-0.8540039-0.253006-1.7669678-0.3549957-2.7069702-0.3070068l-1.3870239,0.1800079
		c-1.8389893,0.1759949-2.9259644,0.6719971-6.2609863,2.5460052c-1.9849854,1.0869904-4.4359741,3.1009979-6.5490112,5.3799896
		c-2.2179565,2.3470001-3.6619873,4.4420013-5.7359619,8.3269958l-0.1760254,0.3540039
		c-0.1870117,0.3720016-0.3590088,0.7170029-0.5089722,1.0660019c-1.5350342,3.3349991-1.9130249,5.7770004-1.2630005,8.1559982
		c0.1679688,0.7519989,0.4679565,1.3840027,0.8919678,1.8799973c0.9559937,1.2360001,1.7130127,1.6910019,3.5289917,2.1139984
		l0.894043,0.1730042l2.3509521,0.1709976l0.4260254,0.0019989c0.3009644,0,0.6740112-0.0439987,1.0889893-0.1259995
		c3.934021-0.5469971,8.1480103-3.6269989,12.5209961-9.1489944
		C264.0909119,60.0501938,265.9299011,56.9001923,267.0539246,53.6431885"/>
	<path class="st7" d="M287.9060364,71.731987l0.0739746-0.0049973c0.5460205-0.0530014,1.1309814-0.1179962,1.7059937-0.2309952
		l0.8569946-0.1670074l1.2089844-0.423996l2.2280273-0.5019989h0.2709961l0.2620239-0.1959991
		c1.0969849-0.8219986,1.7369995-2.0080032,1.8009644-3.3380051l0.0020142-0.0299988l-0.0009766-0.0309982
		c-0.0200195-1.4680023-0.6070557-1.8860016-1.1589966-1.9520035l-0.0790405-0.022995
		c0.3330078-0.6650009,1.0579834-1.8800049,1.9240112-3.3270035c0.7210083-1.2279968,1.2730103-2.2549973,1.7340088-3.2289963
		c3.2789917-6.8810043,3.6069946-9.2639923,1.6929932-12.1100006c-0.6589966-1.0639954-1.9169922-1.5809937-3.8469849-1.5809937
		c-0.7770386,0-1.4800415,0.0829926-2.2160034,0.2630005c-2.31604,0.5789948-3.8779907,1.1839905-4.9119873,1.9029999
		l-0.5859985,0.3659973l-0.5780029,0.4039917c-0.0200195,0.0120087-0.0390015,0.0230103-0.0580444,0.0340118
		c-0.0169678-0.0390015-0.0339966-0.0810089-0.052002-0.1240082c-0.1389771-0.2939911-0.5979614-1.0639954-1.8709717-1.8580017
		c-0.5930176-0.3649902-1.2440186-0.6129913-1.9160156-0.7359924c-1.5700073-0.3160095-3.0629883-0.3090057-4.1939697,0.0169983
		l-0.9710083,0.2689972c0.1140137-1.5769958-0.7579956-2.2890015-1.6060181-2.6100006
		c-0.9680176-0.4219971-2.3220215-0.1629944-4.6539917,0.8880005c-2.1259766,0.9730072-3.0510254,1.7870026-3.5180054,3.1049957
		c-0.4520264,1.1480103-0.1420288,2.1330109,0.8380127,2.7490082c0.2000122,0.1409912,0.4769897,0.3000031,0.882019,0.3339996
		l0.2819824,0.0820007c-0.2810059,0.6119995-0.9830322,1.7819901-1.447998,2.5589905l-0.1260376,0.2250061
		c-0.3849487,0.6919937-0.9119873,1.6379929-2.3579712,4.3289948c-1.1489868,2.1559982-1.8590088,3.5429993-2.3779907,4.6440048
		c-0.8550415,1.848999-1.7850342,3.836998-2.0900269,4.2529984c-0.8040161,0.3059998-1.677002,0.7149963-2.7260132,1.2719955
		c-1.2890015,0.6720047-2.4319458,2.564003-2.0199585,4.1320038c0.3739624,1.2139969,1.5999756,1.4850006,2.7489624,1.5910034
		l0.5570068,0.0039978l2.2590332-0.2900009l2.2340088-0.3359985c2.6549683-0.5040054,3.9579468-1.1959991,4.1869507-3.7600021
		c0.0970459-1.0619965,0.0720215-1.6809998-0.3330078-2.125c-0.2029419-0.2220001-0.4749756-0.3550034-0.776001-0.3809967
		c-0.0799561-0.0139999-0.1479492-0.0270004-0.2039795-0.0390015c0.2340088-0.590004,0.9329834-1.7490005,1.2590332-2.2919998
		c1.0639648-1.7410049,2.1349487-3.7000046,3.2719727-5.9860001c2.8920288-5.7980042,3.0319824-5.9380035,7.5109863-7.4800034
		c0.7059937-0.2489929,1.0209961-0.2630005,1.1310425-0.2539978c0.0339966,0.102005,0.0939941,0.3870087,0.0439453,1.0570068
		c-0.0439453,0.4889908-0.1709595,1.0819931-0.4019775,1.8739929c-0.0839844,0.2959976-0.4199829,1.3909988-1.223999,3.0650024
		c-2.7659912,5.9850006-3.8590088,7.7369995-4.210022,8.2220001c-0.6849976,0.1009979-1.3709717,0.3050003-1.9839478,0.5029984
		c-1.5170288,0.5309982-2.6490479,2.2910004-2.5770264,4.0359955c0.0410156,0.5910034,0.1309814,1.2610016,0.6890259,1.7260056
		c0.6919556,0.5759964,1.6799927,0.5329971,3.7699585,0.2929993l3.0110474-0.3390045l1.3249512-0.2360001
		c1.3900146-0.2719955,2.5289917-1.4710007,2.9060059-3.0749969c0.151001-0.7080002,0.3580322-1.677002-0.3619995-2.2040024
		c-0.3059692-0.2279968-0.5230103-0.3959961-0.6759644-0.5189972c0.2969971-0.5169983,0.7599487-1.4339981,1.782959-3.5910034
		c1.4609985-3.0089951,1.7890015-3.6639938,2.0830078-4.1489944c1.2340088-2.2080002,1.69104-2.727005,5.2369995-4.9740067
		c1.4509888-0.9339905,2.5910034-1.423996,3.1879883-1.5759888c0.401001-0.0660095,0.6430054-0.0780029,0.78302-0.0820007
		c-0.0109863,0.201004-0.0709839,0.5950012-0.28302,1.3479919l-0.0219727,0.0920029
		c-0.0369873,0.2060013-0.0910034,0.3720016-0.184021,0.6220016l-0.2630005,0.7509995l-0.4069824,0.9609985l-2.7459717,5.9970016
		c-2.6150513,5.7089996-2.6150513,5.7089996-3.9820557,5.8699951l-0.1409912,0.0250015
		c-0.3120117,0.0579987-0.6989746,0.1310043-1.1090088,0.3300018c-1.2659912,0.538002-2.4499512,2.2180023-2.1779785,4.0219955
		C284.5019836,71.8039932,286.2279968,71.7669907,287.9060364,71.731987"/>
	<path class="st7" d="M317.8089294,56.4322891c-1.4990234,1.4190063-3.6000366,3.003006-6.0670166,4.576004
		c-1.1779785,0.7360001-1.9940186,1.2249985-2.6779785,1.5469971l-0.3099976,0.2020035l-2.3140259,1.0209961
		c-0.4569702,0.201004-0.8009644,0.3380051-1.0609741,0.4319992c0.5109863-1,1.5390015-2.8899994,3.0429688-5.6549988
		l3.6849976-6.798996c0.4440308-0.4360046,1.1290283-0.7499924,3.2319946-1.1740036
		c1.7310181-0.3349915,2.9180298-0.2899933,3.4800415-0.1279907c1.5650024,0.3990021,1.7099609,0.5800018,1.7779541,0.7319946
		C321.0189514,52.4012909,320.6869202,53.6092911,317.8089294,56.4322891 M320.9199524,61.0302887
		c3.3729858-3.5009995,7.4819946-8.7799988,4.2409668-14.1769867c-0.7189941-1.2200012-1.9140015-2.230011-3.335022-2.8310089
		c-1.6989746-0.7850037-3.0169678-1.1029968-4.2689819-1.0299988l-1.6359863,0.1159973
		c0.09198-0.776001-0.0469971-1.4779968-0.7210083-2.0839996l-0.0549927-0.04599
		c-1.0100098-0.7830048-1.9710083-0.4960022-2.7620239-0.1170044c-1.9629517,0.8950043-2.3289795,1.0240021-2.6199951,1.1279907
		l-1.0960083,0.381012l-0.1170044,0.0299988l-1.4959717,0.7489929c-1.6040039,0.7839966-2.1929932,1.2839966-2.7420044,2.8800049
		c-0.3660278,1.0319977-0.3380127,1.826004,0.0869751,2.4279938c0.2600098,0.3690033,0.7910156,0.8090057,1.8380127,0.8090057
		h0.2990112c-0.2030029,0.4169922-0.4500122,0.8999939-0.6459961,1.2850037l-2.5230103,4.92099
		c-8.276001,16.026001-9.7669678,18.9140015-10.6969604,20.8889999c-1.9980469,4.2910004-1.9980469,4.2910004-3.31604,4.4990005
		c-0.3889771,0.0680008-0.7669678,0.1900024-1.2669678,0.4169998c-1.3870239,0.7099991-2.2620239,2.227005-2.0280151,3.5770035
		c0.072998,0.3249969,0.1619873,0.7269974,0.4799805,1.0830002c0.6240234,0.8069992,1.2720337,1.0739975,2.2230225,1.0739975
		c0.5869751,0,1.289978-0.1019974,2.1740112-0.2419968l0.25-0.0400009c0.2709961-0.0429993,0.5759888-0.0910034,0.9219971-0.1809998
		l1.5449829-0.2810059l0.8220215-0.1679993l0.1009521-0.026001c0.1430054-0.0449982,0.2820435-0.0799942,0.4210205-0.1139984
		c0.190979-0.0479965,0.382019-0.0970001,0.5499878-0.1529999c2.8699951-0.8330002,4.3080444-1.6940002,4.2020264-4.0690002
		c-0.0230103-0.7750015-0.0570068-1.9459991-1.0830078-2.2389984l-0.072998-0.0179977
		c-0.4520264-0.0930023-0.7030029-0.1940002-0.835022-0.2639999l1.059021-2.2910004
		c1.7449951-3.689003,2.4260254-4.8820038,2.6790161-5.2669983l1.2689819-0.2560043h0.1019897l4.5930176-1.5359955
		l0.5269775-0.1570053l0.0790405-0.0270004c1.6349487-0.6419983,3.4899902-1.6019974,5.5130005-2.8519974
		C316.526947,65.0112915,319.0689392,63.0022888,320.9199524,61.0302887"/>
	<path class="st7" d="M335.360321,60.4761963c-0.0599976,0.189003-0.15802,0.4430008-0.3220215,0.7740021
		c-1.0609741,2.2189941-5.2199707,3.9949951-7.6970215,4.496994l-0.0180054,0.0040054
		c-1.5559692,0.3460007-2.3729858,0.4259949-2.7929688,0.4290009
		C325.3323059,64.8071976,329.3312683,61.4371948,335.360321,60.4761963 M340.1933289,65.4841919
		c-0.3790283-0.4529953-0.9100342-0.6149979-1.4250488-0.6539993c0.8070068-1.6489944,2.3600464-4.4869995,2.9720459-5.6059952
		c0.3369751-0.6150055,0.5859985-1.0709991,0.6789551-1.2519989c4.3080444-8.5420074,6.6210327-13.8829956,2.4230347-16.0399933
		c-5.5939941-2.803009-17.0090332,7.8519897-17.9330444,9.5029907c-0.7669678,1.2719955-0.9169922,2.2159958-0.4599609,2.887001
		c0.1569824,0.2319946,0.6270142,0.7519989,1.6270142,0.5839996c0.6209717-0.1090012,1.901001-0.9029999,5.980957-3.576004
		c2.1090088-1.3809891,4.4990234-2.9459915,5.2290039-3.2589951c1.0109863-0.4530029,1.5640259-0.6179962,1.8550415-0.6759949
		c-0.059021,0.3840027-0.2850342,1.1920013-1.0040283,2.8769989c-0.2260132,0.5090027-0.3950195,0.9269943-0.5360107,1.2719955
		c-0.2349854,0.5769958-0.3900146,0.9570007-0.5239868,1.0569992c-0.1879883,0.1399994-0.7890015,0.276001-1.6210327,0.4639969
		c-0.6219482,0.1409988-1.3959961,0.3160019-2.4229736,0.5800018c-1.0219727,0.2710037-6.1779785,2.6070023-8.3759766,3.9199982
		c-3.6490479,2.1790009-6.7950439,6.2929993-7.6710205,7.8370056c-1.5280151,2.6839981-1.7839966,4.7419968-0.7609863,6.1189957
		c1.065979,1.4370041,3.3540039,1.840004,6.440979,1.137001c1.5629883-0.348999,4.0460205-1.2949982,5.5020142-1.8659973
		c-0.1210327,0.9379959,0.2189941,1.4829941,0.5639648,1.7889938c0.3600464,0.3180008,0.8280029,0.4790039,1.4300537,0.4790039
		c0.8479614,0,1.9609985-0.3180008,3.4159546-0.9629974c3.3340454-1.5530014,4.1669922-2.5330048,4.8439941-4.526001
		C340.7043152,66.7051926,340.6272888,66.0021973,340.1933289,65.4841919"/>
	<path class="st7" d="M365.9723206,67.7344894c0.3389893-0.9039993,0.5959473-1.7639999,0.0239868-2.362999l-0.1640015-0.137001
		c-0.4210205-0.2819977-0.69104-0.4749985-0.8630371-0.6059952l4.197998-7.9810028l0.0280151-0.0540009
		c0.3380127-0.6629944,0.65802-1.2900009,0.8859863-1.8959961c1.8840332-4.5269928,1.9570313-6.9519958,0.2820435-9.2659912
		c-1.1030273-1.5370026-2.0930176-2.0360107-4.3840332-2.2240143c-1.3259888-0.1499939-2.5549927-0.0799866-3.5339966,0.1990051
		l-0.3469849,0.0919952c-0.0980225,0.026001-0.1929932,0.0510101-0.2839966,0.0750122
		c0.0289917-0.348999-0.0289917-0.6699982-0.2299805-0.9620056c-0.4280396-0.6230011-1.1850586-0.6230011-1.592041-0.6230011
		h-0.9389648l-0.3540039,0.022995c-0.4130249,0.0570068-0.8400269,0.1170044-1.3649902,0.2929993
		c-3.9540405,1.0490112-5.1400146,1.6860046-5.9330444,4.1260071l-0.0009766,0.0059967
		c-0.2949829,0.928009-0.2810059,1.6670074,0.0440063,2.2590027c0.1809692,0.3289948,0.5479736,0.7599945,1.2749634,0.9669952
		l0.0410156,0.0149994c-0.6759644,1.1620026-1.6060181,2.9670029-3.9749756,7.8069992
		c-0.8950195,1.8330002-1.5790405,3.253006-2.1130371,4.3590012c-1.690979,3.5080032-1.7609863,3.6310043-2.1049805,3.8410034
		l-0.0269775,0.0139999c-0.0440063,0.0209961-0.0910034,0.0459976-0.1480103,0.0670013
		c-1.217041,0.2890015-1.6310425,0.4089966-2.0280151,0.6439972c-1.8120117,0.9349976-1.9719849,1.8320007-2.1669922,4.310997
		c-0.026001,0.8250046,0.4489746,1.8030014,1.8540039,2.0910034c0.1989746,0.0530014,0.4959717,0.1050034,1.007019,0.1050034
		c0.4359741,0,1.0289917-0.038002,1.848999-0.1430054l2.1879883-0.3839951
		c1.3469849-0.2250061,2.427002-0.7229996,3.2160034-1.4840012c1.1380005-1.1090012,1.6999512-2.2249985,1.6259766-3.2249985
		c-0.0490112-0.6640015-0.382019-1.2509995-0.9400024-1.6539993l-0.1849976-0.114006
		c0.2630005-0.5169983,0.690979-1.3509979,1.322998-2.5779953l3.572998-6.8940048
		c2.7269897-5.1849976,3.2250366-5.7079926,5.0670166-6.598999l0.9790039-0.4349976l0.5759888-0.2169952
		c0.8449707-0.3560028,1.5020142-0.5429993,2.0869751-0.5910034c1.1340332-0.1159973,1.3520508,0.0639954,1.3530273,0.0639954
		c0.0009766,0.0019989,0.1419678,0.2150116-0.0560303,1.223999c-0.1029663,0.5870056-0.3509521,1.3000031-1.5629883,4.0020065
		l-0.1959839,0.473999l-3.4869995,7.125c-1.5479736,3.1439972-1.5479736,3.1439972-2.7319946,3.25
		c-2.3040161,0.1899948-2.96698,1.836998-3.289978,3.2699966c-0.1970215,0.9530029-0.3340454,1.9459991,0.3149414,2.6730042
		c0.7920532,0.8869934,2.2290039,0.8610001,5.1020508,0.6019974
		C363.0583191,70.9734955,364.9772644,70.3184967,365.9723206,67.7344894"/>
	<path class="st7" d="M398.1075134,43.6295929l-0.019043-0.0379944c-0.8449707-2.0159912-2.1939697-1.8769989-4.0050049-1.4179993
		c-0.2819824,0.0249939-0.5239868,0.1150055-0.7069702,0.1829987l-0.0560303,0.0209961
		c-0.9889526,0.2840118-1.6369629,0.5149994-2.1669922,0.7730103c-2.2650146,1.1100006-4.5079956,2.6109924-3.9599609,5.3679962
		c0.1309814,0.5350037,0.4499512,0.9900055,0.8869629,1.2700043c0.2030029,0.1750031,0.507019,0.3419952,0.9360352,0.3629913
		l0.302002,0.0490112c-0.132019,1.2819901-1.3140259,4.8489914-5.052002,9.8179855l-1.0400391,1.3290024l-0.0540161,0.0709991
		c-0.4219971,0.4110031-1.105957,0.8619995-3.0879517,1.8600006l-1.5419922,0.7200012l-0.1330566,0.0709991
		c-0.9029541,0.4029999-1.8319702,0.6709976-2.4449463,0.7160034c-0.0630493,0.0019989-0.1230469,0.0019989-0.1780396,0.0019989
		c-0.7099609,0-0.8599854-0.0970001-0.8619995-0.0950012c-0.3269653-0.6549988,1.3240356-4.4729996,1.8770142-5.7519989
		c0.0739746-0.1860046,0.1589966-0.3690033,0.242981-0.5510025c0.0930176-0.2009964,0.1849976-0.401001,0.2480469-0.5579987
		c1.1089478-2.3929977,2.1029663-4.3570023,3.1259766-6.1750031l0.6920166-1.2099991
		c2.4849854-4.3429871,2.6339722-4.6029968,2.2449951-6.1279907c-0.5419922-2.0559998-2.1749878-1.6800079-4.644043-1.0980072
		c-0.3989868,0.0709991-0.8029785,0.1900024-1.2049561,0.3090057l-0.3340454,0.0970001l-1.2639771,0.5289917
		c-1.5280151,0.5950012-2.3109741,1.4210052-2.7949829,2.9450073l-0.0090332,0.0289917
		c-0.1089478,0.381012-0.2299805,0.8860016-0.2189941,1.4300079c-0.026001,1.2149963,0.3519897,1.9290009,1.1240234,2.121994
		l0.1499634,0.0270081c0.0630493,0.0090027,0.125,0.0169983,0.1860352,0.026001
		c-0.1170044,0.2449951-0.3140259,0.6119919-0.6430054,1.1499939l-0.0300293,0.052002
		c-0.315979,0.5449982-0.6429443,1.1079941-1.0689697,1.9609985c-0.4749756,0.8499985-0.8469849,1.6339951-1.2410278,2.461998
		l-0.1029663,0.2170029c-2.5109863,5.6959991-2.9440308,7.7629929-1.1790161,11.3679962
		c0.197998,0.4729996,0.4840088,0.8919983,0.8699951,1.2770004c1.0530396,1.0599976,2.2659912,1.6259995,3.6170044,1.6839981
		c1.6359863,0.0500031,3.1699829-0.1429977,4.1069946-0.5169983c0.1860352-0.0749969,0.368042-0.1439972,0.5480347-0.2099991
		c-0.132019,0.262001-0.2930298,0.5709991-0.4920044,0.9339981c-0.5900269,1.0810013-1.276001,2.2229996-2.151001,3.5830002
		l-1.8840332,2.8249969c-0.0490112,0.0580063-0.0960083,0.1160049-0.1430054,0.1730042
		c-0.1129761,0.1380005-0.2099609,0.2579956-0.3259888,0.3649979l-0.065979,0.0660019
		c-0.5620117,0.6279984-1.1779785,1.1259995-1.8569946,1.5090027c-1.132019,0.5970001-2.0720215,0.6429977-3.0250244,0.1609955
		l-0.6859741-0.3679962c-3.0750122-1.6490021-3.3580322-1.8040009-4.3209839-1.7410049
		c-0.9840088,0.0029984-1.4450073,0.1560059-1.9910278,0.4550018l-0.0490112,0.0289993
		c-0.7700195,0.4810028-1.309021,1.2819977-1.4069824,2.0780029c-0.184021,1.3460007,0.4389648,2.0970001,1.8189697,3.1769943
		l0.0910034,0.064003c0.0480347,0.0299988,0.0930176,0.0660019,0.1409912,0.1019974
		c0.1160278,0.0890045,0.2590332,0.1980057,0.4430542,0.3000031l0.4039917,0.2580032l1.0799561,0.5359955
		c1.585022,0.802002,2.8810425,1.1610031,4.1719971,1.1610031h0.0030518
		c0.1949463,0.0059967,0.3899536,0.0089951,0.5839844,0.0089951c1.2619629,0,2.4779663-0.1309967,3.4099731-0.3709946
		c2.7440186-0.7249985,4.3580322-1.9380035,6.4160156-4.8390045l1.2379761-1.8679962
		c1.4420166-2.1539993,2.6199951-4.2350006,6.0060425-10.6050034l4.0319824-7.6469955l3.8099976-7.5270004l1.1210327-2.0089951
		C398.7294617,45.4315948,398.8514709,45.2145996,398.1075134,43.6295929"/>
</g>
</svg>
